<?xml version="1.0" encoding="UTF-8"?>
<!DOCTYPE svg PUBLIC "-//W3C//DTD SVG 1.1//EN" "http://www.w3.org/Graphics/SVG/1.1/DTD/svg11.dtd">
<!-- Creator: CorelDRAW 2021 (64-Bit) -->
<svg xmlns="http://www.w3.org/2000/svg" xml:space="preserve" width="2236px" height="1392px" version="1.1" style="shape-rendering:geometricPrecision; text-rendering:geometricPrecision; image-rendering:optimizeQuality; fill-rule:evenodd; clip-rule:evenodd"
viewBox="0 0 4732.95 2946.69"
 xmlns:xlink="http://www.w3.org/1999/xlink"
 xmlns:xodm="http://www.corel.com/coreldraw/odm/2003">
 <defs>
  <style type="text/css">
   <![CDATA[
    .fil4 {fill:#2F2E41;fill-rule:nonzero}
    .fil0 {fill:#3F3D56;fill-rule:nonzero}
    .fil1 {fill:#B1B1B1;fill-rule:nonzero}
    .fil5 {fill:#CACACA;fill-rule:nonzero}
    .fil2 {fill:#F2F2F2;fill-rule:nonzero}
    .fil3 {fill:#FFB6B6;fill-rule:nonzero}
   ]]>
  </style>
 </defs>
 <g id="Layer_x0020_1">
  <metadata id="CorelCorpID_0Corel-Layer"/>
  <g id="_2364000489040">
   <path class="fil0" d="M3854.14 563.71l-242.16 -180.32 -133.49 -57.42 -15.74 -76.53c39.62,-24.47 64.03,-68 64.03,-114.7 0,-74.28 -60.39,-134.74 -134.74,-134.74 -74.29,0 -134.74,60.46 -134.74,134.74 0,50.21 28.37,96.65 72.76,119.73l-12.77 77.52 -103.72 50.08 -6.41 0 -11.91 8.86 -16.93 8.14 0.59 4.03 -517.73 111.53 60.13 76.53 476.72 -48.36 7.08 389.88 40.35 917.59 -5.03 148.96 128.06 5.36 -14.88 -154.12 67.07 -765.06 100.02 770.08 4.96 139.31 118.93 0 -25.2 -1079.59 -2.38 -57.22 -0.66 -15.34 -12.9 8.47 0.66 15.41 2.05 48.68 -23.75 488.83 0 0.46 47.83 577.07 -91.82 0 -4.49 -126.8 -118.34 -862.36 -75.21 857.53 -0.07 0.6 13.56 140.16 -99.74 -4.17 4.49 -135.99 -40.28 -918.52 -7.48 -413.49 -486.64 54.9 -44.26 -56.29 513.18 -108.15 -0.27 -2.25 8.73 -4.17 9.93 -7.27 5.09 0 112.58 -54.38 14.35 -87.05 5.16 -5.16 -8.47 -4.03c-42.33,-19.98 -69.71,-63.11 -69.71,-109.94 0,-67.01 54.5,-121.51 121.51,-121.51 67,0 121.51,54.5 121.51,121.51 0,43.59 -23.55,84.07 -61.45,105.7l-4.17 2.38 19.05 92.61 137.72 59 240.78 179.33 11.97 8.93 7.54 -3.64 1.06 -6.48 -11.91 -8.86 0 0zm-265.11 -56.69l9.26 220.93 0.66 15.94 12.9 -9.59 -0.67 -15.94 -7.8 -186.07 136.59 90.16 14.88 9.79 13.83 -6.68 -12.83 -8.47 -166.83 -110.07 0.01 0zm0 0l9.26 220.93 12.89 -9.59 -7.8 -186.07 136.59 90.16 2.98 -2.25 6.42 0 6.48 -3.11 -166.82 -110.07 0 0z"/>
   <path class="fil1" d="M4585.07 1312.83l-792.71 -602.27 -6.75 -11.51 -19.51 -650.23c-12.43,0.26 35.85,-22.29 84.6,13.89l642.96 476.66c31.22,23.15 51.26,58.6 55.03,97.23l59.66 612.66c4.83,49.81 -32.41,84.27 -23.28,63.57l0 0z"/>
   <g>
    <path class="fil0" d="M4371.31 677.41l272.13 -239.03 76.7 -67.36c9.61,-8.44 -4.47,-22.43 -14.04,-14.03l-272.13 239.02 -76.7 67.36c-9.61,8.45 4.47,22.44 14.04,14.04l0 0z"/>
    <path class="fil0" d="M4527.11 394.52l99.67 -19.09 51.44 -9.85c9.52,-1.82 32.6,-10.99 35.14,3.63 2.26,12.98 -3.17,28.75 -5.34,41.47l-8.55 50.09 -17.37 101.81c-2.15,12.59 17.63,14.27 19.77,1.75 9.93,-58.18 19.94,-116.34 29.78,-174.53 3.45,-20.43 1.51,-46.23 -24.65,-48.29 -13.26,-1.05 -27.47,3.61 -40.38,6.08l-43.41 8.31 -99.67 19.09c-12.52,2.39 -9.02,21.93 3.57,19.52l0 0.01z"/>
   </g>
   <rect class="fil0" transform="matrix(0.771763 -0.635909 0.635909 0.771763 4224.9 517.603)" width="13.23" height="371.86"/>
   <g>
    <path class="fil2" d="M695.43 2342.99c-5.59,-9.41 -29.75,0.67 -34.19,-7.88 -4.43,-8.51 18.02,-21.49 30.84,-51.13 2.32,-5.34 16.89,-39.02 6.1,-49.42 -20.45,-19.7 -114.03,61.6 -146.79,35 -7.18,-5.84 -12.2,-17.5 -33.96,-36.43 -8.65,-7.52 -13.88,-10.92 -18.95,-9.66 -7.18,1.8 -7.75,11.41 -15.46,30.32 -11.55,28.36 -18.39,26.65 -25.12,49.28 -5,16.79 -3.86,26.56 -9.74,28.46 -8.32,2.69 -15.98,-15.12 -26.53,-13.53 -10.76,1.63 -17.27,22.37 -19.32,37.91 -3.86,29.14 6.84,48.37 12.77,68.59 6.45,21.98 10.28,55.4 -4.61,102.71l-147.36 415.19c32.53,-85.2 126.73,-318.74 166.31,-405.52 11.42,-25.06 24.04,-50.47 49.95,-60.5 24.94,-9.65 59.19,-3.89 102.86,-14.41 5.1,-1.22 19.25,-4.83 21.03,-13.15 1.47,-6.88 -6.85,-10.72 -5.57,-17.17 1.71,-8.64 18.08,-8.75 38.2,-18.72 14.19,-7.04 23.02,-15.4 30.62,-22.59 2.29,-2.17 36.35,-34.81 28.92,-47.35l0 0z"/>
    <path class="fil2" d="M115.68 2561.56c-6.24,0.03 -8.26,14.8 -13.74,14.51 -5.45,-0.28 -5.34,-15.05 -16.19,-29.89 -1.96,-2.68 -14.28,-19.55 -22.5,-17.26 -15.57,4.36 -2.67,73.75 -25.18,82.14 -4.94,1.85 -12.11,0.95 -27.67,6.16 -6.19,2.08 -9.37,3.67 -10.21,6.52 -1.19,4.04 3.36,7.1 10.42,16.33 10.59,13.86 7.77,16.72 16.94,26.55 6.8,7.3 11.92,9.56 11.16,12.99 -1.08,4.87 -12.04,3.49 -14.3,9.12 -2.31,5.76 6,14.93 13.03,20.42 13.19,10.31 25.71,10.6 37.35,13.52 12.65,3.18 30.15,10.95 49.08,31.9l161.26 192.12c-32.43,-40.55 -119.88,-154.16 -151.05,-198.63 -9,-12.84 -17.83,-26.36 -15.28,-41.97 2.46,-15.02 15.17,-30.17 22.61,-54.64 0.87,-2.86 3.18,-10.84 -0.39,-14.12 -2.95,-2.71 -7.24,0.27 -10.03,-2.22 -3.75,-3.33 0.92,-11.4 1.83,-24.15 0.64,-8.99 -0.92,-15.74 -2.25,-21.55 -0.41,-1.75 -6.6,-27.88 -14.9,-27.85l0 0 0.01 0z"/>
    <path class="fil2" d="M240.03 2589.48l-3.75 -33.53 1.71 -2.54c7.94,-11.75 11.99,-23.23 12.04,-34.12 0.01,-1.73 -0.07,-3.47 -0.16,-5.23 -0.32,-6.99 -0.72,-15.68 3.81,-25.82 2.54,-5.65 9.68,-18.72 20.41,-17.11 2.89,0.41 5.08,1.74 6.74,3.29 0.24,-0.39 0.49,-0.78 0.76,-1.2 3.34,-5.1 5.99,-7.28 8.53,-9.39 1.96,-1.61 3.99,-3.28 7.16,-7.23 1.39,-1.74 2.48,-3.26 3.39,-4.54 2.78,-3.86 6.4,-8.48 12.8,-8.4 6.83,0.33 10.4,5.98 12.78,9.72 4.23,6.67 6.15,11.48 7.42,14.66 0.46,1.17 0.99,2.48 1.25,2.89 2.21,3.23 20.1,0.21 26.84,-0.89 15.15,-2.53 28.25,-4.71 33.65,4.84 3.87,6.83 0.99,15.86 -8.8,27.56 -3.05,3.65 -6.3,6.41 -9.18,8.58 2.39,1.43 4.53,3.61 5.39,7.05l0 -0.01c2.04,8.12 -4.94,16.27 -20.75,24.23 -3.92,1.99 -9.21,4.65 -16.61,5.93 -3.49,0.6 -6.63,0.74 -9.32,0.82 -0.06,1.56 -0.42,3.24 -1.37,4.97 -2.77,5.1 -8.55,7.53 -17.26,6.95 -9.58,-0.51 -17.48,-2.33 -24.44,-3.94 -6.07,-1.39 -11.31,-2.57 -15.42,-2.29 -7.63,0.61 -13.5,6.71 -20.4,14.63l-17.21 20.12 -0.01 0z"/>
    <path class="fil2" d="M257.45 2389.87l-31.47 12.14 -2.9 -1.02c-13.38,-4.7 -25.51,-5.7 -36.06,-2.98 -1.67,0.43 -3.33,0.95 -5.01,1.47 -6.69,2.09 -14.99,4.68 -25.94,2.87 -6.11,-1.02 -20.58,-4.61 -21.73,-15.4 -0.34,-2.9 0.39,-5.35 1.47,-7.35 -0.44,-0.14 -0.88,-0.28 -1.35,-0.43 -5.78,-1.94 -8.57,-3.95 -11.25,-5.88 -2.06,-1.49 -4.19,-3.02 -8.82,-5.09 -2.02,-0.9 -3.77,-1.57 -5.24,-2.13 -4.45,-1.7 -9.83,-4.04 -11.38,-10.24 -1.42,-6.69 3.14,-11.59 6.16,-14.83 5.37,-5.79 9.54,-8.86 12.3,-10.9 1.01,-0.74 2.15,-1.58 2.47,-1.95 2.57,-2.95 -4.89,-19.49 -7.67,-25.73 -6.28,-14.01 -11.72,-26.13 -3.85,-33.77 5.63,-5.48 15.09,-4.99 28.9,1.51 4.3,2.03 7.8,4.47 10.63,6.71 0.77,-2.67 2.34,-5.3 5.44,-7l0 0c7.34,-4.04 16.99,0.66 28.7,13.93 2.93,3.29 6.83,7.73 9.95,14.57 1.46,3.22 2.4,6.22 3.16,8.8 1.52,-0.34 3.24,-0.42 5.16,0.06 5.63,1.39 9.45,6.37 11.09,14.94 1.95,9.4 2.18,17.49 2.39,24.63 0.2,6.24 0.38,11.6 1.69,15.51 2.53,7.22 9.93,11.35 19.33,16.02l23.83 11.54 0 0z"/>
    <path class="fil2" d="M240.03 2291.11l-3.75 -33.53 1.71 -2.54c7.94,-11.75 11.99,-23.23 12.04,-34.12 0.01,-1.74 -0.07,-3.47 -0.16,-5.23 -0.32,-6.99 -0.72,-15.69 3.81,-25.82 2.54,-5.65 9.68,-18.73 20.41,-17.11 2.89,0.41 5.08,1.73 6.74,3.29 0.24,-0.39 0.49,-0.78 0.76,-1.2 3.34,-5.1 5.99,-7.29 8.53,-9.39 1.96,-1.62 3.99,-3.28 7.16,-7.23 1.39,-1.74 2.48,-3.26 3.39,-4.54 2.78,-3.86 6.4,-8.48 12.8,-8.4 6.83,0.33 10.4,5.98 12.78,9.72 4.23,6.67 6.15,11.47 7.42,14.66 0.46,1.17 0.99,2.48 1.25,2.88 2.21,3.24 20.1,0.21 26.84,-0.89 15.15,-2.52 28.25,-4.71 33.65,4.84 3.87,6.83 0.99,15.87 -8.8,27.57 -3.05,3.64 -6.3,6.41 -9.18,8.58 2.39,1.43 4.53,3.61 5.39,7.04l0 0c2.04,8.12 -4.94,16.27 -20.75,24.23 -3.92,1.99 -9.21,4.65 -16.61,5.93 -3.49,0.6 -6.63,0.74 -9.32,0.82 -0.06,1.56 -0.42,3.24 -1.37,4.97 -2.77,5.1 -8.55,7.53 -17.26,6.95 -9.58,-0.5 -17.48,-2.33 -24.44,-3.93 -6.07,-1.4 -11.31,-2.58 -15.42,-2.3 -7.63,0.61 -13.5,6.72 -20.4,14.63l-17.21 20.12 -0.01 0z"/>
    <path class="fil2" d="M274.33 2941.85l-7.02 -4.4 -1.7 -8.11 1.7 8.11 -8.19 0.94c-0.13,-0.76 -0.58,-2.51 -1.25,-5.25 -3.67,-14.99 -14.84,-60.6 -24.17,-132.44 -6.5,-50.15 -10.19,-101.71 -10.95,-153.27 -0.76,-51.64 1.69,-90.73 3.65,-122.15 1.48,-23.7 3.27,-46.26 5.04,-68.25 4.69,-58.73 9.12,-114.2 5.83,-175.62 -0.73,-13.71 -2.26,-42.24 -18.94,-72.61 -9.67,-17.62 -22.99,-33.25 -39.6,-46.46l10.33 -12.98c18.33,14.6 33.07,31.92 43.81,51.47 18.49,33.67 20.15,64.77 20.96,79.71 3.35,62.5 -1.13,118.51 -5.87,177.8 -1.75,21.91 -3.55,44.37 -5.02,67.97 -1.94,31.13 -4.36,69.89 -3.61,120.86 0.75,50.94 4.39,101.87 10.81,151.39 9.21,70.93 20.22,115.87 23.84,130.63 1.93,7.88 2.33,9.54 0.36,12.66l0 0 -0.01 0z"/>
    <path class="fil2" d="M148.33 2188.67c-0.68,0 -1.37,-0.01 -2.07,-0.06 -14.11,-0.76 -27.18,-9.21 -38.86,-25.11 -5.47,-7.48 -8.27,-16.01 -13.85,-33.02 -0.87,-2.62 -5.08,-15.93 -7.64,-34.24 -1.67,-11.96 -1.46,-16.96 0.91,-21.38 2.63,-4.92 6.89,-8.35 11.68,-10.67 -0.21,-1.59 -0.04,-3.22 0.65,-4.89 2.82,-6.91 10.33,-6 14.4,-5.56 2.05,0.26 4.62,0.6 7.39,0.45 4.35,-0.21 6.69,-1.51 10.24,-3.45 3.39,-1.86 7.6,-4.18 13.86,-5.45 12.34,-2.58 22.67,0.92 26.08,2.07 17.93,5.97 26.76,19.91 36.99,36.05 2.04,3.24 9.04,15.02 13.67,31.18 3.33,11.65 2.86,16.83 1.86,20.69 -2.04,7.91 -6.86,12.44 -19.09,22.45 -12.77,10.47 -19.18,15.72 -24.68,18.91 -12.81,7.39 -20.86,12.04 -31.54,12.04l0 0 0 -0.01z"/>
   </g>
   <path class="fil0" d="M3854.14 563.71l-1.05 6.42 -7.61 3.63 11.97 8.93 7.54 -3.63 1.06 -6.49 -11.91 -8.86 0 0zm-104.77 56.49l-6.42 0 -2.98 2.25 -8.93 6.61 -16.93 8.14 0.6 4.03 -103.52 77.13 -12.9 9.59 -308.71 229.86 60.13 76.54 65.15 -43 189.25 -124.82 -0.66 -15.41 -250.83 165.5 -44.26 -56.29 290.59 -216.44 12.9 -9.59 117.08 -87.18 -0.27 -2.25 8.73 -4.17 9.93 -7.27 5.09 0 2.45 -1.19 13.82 -6.68 -12.83 -8.47 -6.48 3.11zm694.54 493.06l-296.14 -491.74 -133.48 -57.41 -15.75 -76.54c39.63,-24.47 64.04,-68 64.04,-114.7 0,-74.28 -60.4,-134.74 -134.75,-134.74 -74.28,0 -134.74,60.46 -134.74,134.74 0,50.21 28.38,96.65 72.76,119.73l-11.71 71.11 -1.05 6.42 -7.61 3.64 -89.63 43.32 -6.48 3.11 -6.42 0 -2.98 2.25 -8.93 6.61 -16.93 8.14 0.6 4.03 -103.52 77.13 -12.9 9.59 -308.71 229.86 60.13 76.54 65.15 -43 189.25 -124.82 12.9 -8.53 116.81 -77.07 7.08 389.88 40.35 917.59 -5.03 148.96 128.06 5.36 -14.88 -154.12 67.08 -765.06 100.01 770.08 4.96 139.31 118.93 0 -25.2 -1079.59 -16.01 -382.92 244.55 419.37 60.19 -76.53 0 0zm-319.09 -368.11l17.13 408.19 -23.75 488.83 0 0.46 47.83 577.07 -91.81 0 -4.5 -126.8 -33.21 -436.64 -85.13 -425.72 -75.21 857.53 -0.06 0.59 13.56 140.17 -99.75 -4.17 4.49 -136 0 -451.45 -40.28 -467.06 -7.47 -413.49 -130.31 85.99 -12.9 8.47 -250.83 165.5 -44.26 -56.29 290.59 -216.44 12.9 -9.59 117.08 -87.18 -0.27 -2.25 8.73 -4.17 9.93 -7.27 5.09 0 2.45 -1.19 13.82 -6.68 88.77 -42.87 7.54 -3.63 1.06 -6.49 13.3 -80.56 5.16 -5.16 -8.47 -4.04c-42.33,-19.97 -69.72,-63.1 -69.72,-109.94 0,-67 54.51,-121.51 121.51,-121.51 67.01,0 121.52,54.51 121.52,121.51 0,43.59 -23.55,84.08 -61.46,105.71l-4.16 2.38 19.05 92.6 137.72 59.01 284.63 483.2 -44.26 56.29 -256.05 -426.91 0 0zm-368.97 -128.06l-6.48 3.11 -6.42 0 -2.98 2.25 -8.93 6.61 -16.93 8.14 0.6 4.03 -103.52 77.13 -12.9 9.59 0.66 15.94 12.9 -9.59 117.08 -87.18 -0.27 -2.25 8.74 -4.17 9.92 -7.27 5.09 0 2.45 -1.19 13.82 -6.68 -12.83 -8.47 0 0z"/>
   <g>
    <path class="fil3" d="M1679.85 2161.89c-9.13,-18.7 -28.15,-30.58 -48.97,-30.58 -11.56,0 -22.82,3.68 -32.15,10.49l-159.23 -110.3 -2.3 100.63 151.55 89.32c10.41,12.42 25.81,19.62 42.02,19.62 30.26,0 54.8,-24.55 54.8,-54.81 0,-8.45 -1.96,-16.8 -5.72,-24.37l0 0z"/>
    <path class="fil1" d="M1528.34 2194.92l-306.31 -170.53 -0.08 -1.49c-0.16,-2.85 -16.09,-286.06 -9.84,-346.51 3.4,-36.56 19.23,-70.85 44.8,-97.17l0.67 -0.61 0.91 -0.09c2.45,-0.21 4.92,-0.33 7.39,-0.33 35.48,0 66.92,22.93 77.75,56.72 17.54,56.07 26.65,114.74 26.65,173.55 0,30.43 -2.47,61 -7.2,91.01l-8.08 50.33 204.01 155.05 -30.67 90.07z"/>
    <polygon class="fil3" points="1991.06,2848.57 2049.98,2823.26 1980.41,2583.95 1893.45,2621.31 "/>
    <path class="fil4" d="M1949.52 2839.28l19.16 -8.23 61.73 -62.53 53.14 13.19 0.01 0c11.58,-4.97 24.07,-7.54 36.68,-7.54 37.16,0 70.76,22.13 85.42,56.27l1.19 2.77 -219.45 94.26 -37.88 -88.19z"/>
    <polygon class="fil3" points="1726,2854.73 1790.13,2854.73 1820.63,2607.39 1725.99,2607.39 "/>
    <path class="fil4" d="M1691.5 2829.81l20.85 0 81.39 -33.1 43.63 33.09 0 0c51.34,0 92.97,41.62 92.97,92.96l0 3.02 -238.84 0.01 0 -95.98z"/>
    <rect class="fil5" x="1307.52" y="2590.68" width="114.09" height="189.06"/>
    <rect class="fil5" transform="matrix(0.460125 -0.678083 0.678083 0.460125 1401.25 2712.3)" width="31.82" height="403.8"/>
    <rect class="fil5" transform="matrix(0.678082 -0.460127 0.460127 0.678082 1039.43 2876.51)" width="403.8" height="31.82"/>
    <circle class="fil5" cx="1682.38" cy="2887.3" r="35.85"/>
    <circle class="fil5" cx="1362.94" cy="2887.3" r="35.85"/>
    <circle class="fil5" cx="1046.76" cy="2887.3" r="35.85"/>
    <rect class="fil5" x="1349.9" y="2701.5" width="26.08" height="185.8"/>
    <rect class="fil5" x="1340.12" y="2424.44" width="48.89" height="250.99"/>
    <path class="fil0" d="M1115.99 2463.55l0 -58.67c0.03,-22.49 18.26,-40.73 40.75,-40.75l381.01 0.01c22.49,0.01 40.73,18.25 40.75,40.74l0 58.67c-0.02,22.49 -18.26,40.73 -40.75,40.75l-381.01 0c-22.49,-0.02 -40.72,-18.26 -40.74,-40.75l-0.01 0z"/>
    <path class="fil4" d="M1064.2 2073.82l276.45 5.42 10.03 78.75c0,0 483.23,-24.54 525.79,75.88 95.83,226.14 178.88,487.85 178.88,487.85l-119.25 37.94 -233.09 -390.27c0,0 -649.65,192.28 -600.86,-132.95l-37.95 -162.62z"/>
    <g>
     <path class="fil4" d="M1900.45 2303.68c-28.37,243.96 -89.03,472.24 -89.03,472.24l-113.83 -16.26 25.93 -460.05 176.93 4.07zm0 0l0 0 0 0z"/>
    </g>
    <circle class="fil3" cx="1293.29" cy="1348.74" r="132.84"/>
    <g>
     <path class="fil4" d="M1297.68 1475.82c-31.05,14.9 -69.28,9.85 -98.94,-7.68 -29.65,-17.54 -51.47,-46.13 -66.72,-77.02 -11.17,-22.62 -19.28,-48.53 -12.81,-72.91 6.46,-24.39 32.27,-44.82 56.44,-37.6 -16.56,-13.33 -14.63,-40.83 -1.25,-57.36 13.38,-16.52 34.5,-24.46 54.9,-30.45 29.6,-8.69 60.72,-14.83 91.25,-10.38 30.54,4.44 60.6,20.97 74.97,48.29 3.79,0.97 7.7,1.47 11.62,1.47 16.89,0 32.48,-9.17 40.68,-23.94 1.86,4.83 2.81,9.96 2.81,15.14 0,13.47 -6.43,26.13 -17.3,34.06l41.35 -22.43c10.54,14.61 0.96,36.9 -15.04,45.18 -16.01,8.28 -35.36,6.07 -52.82,1.64 -17.47,-4.42 3.14,32.47 -14.88,32.82 -18.01,0.36 -37.5,9.79 -42.66,27.06 -2.7,9.04 -1.13,18.75 -1.92,28.15 -0.8,9.41 -5.3,19.84 -14.42,22.29 -5.76,1.55 -12.06,-0.5 -17.77,1.21 -7.04,2.8 -11.76,9.5 -12.01,17.07 -0.01,0.31 -0.01,0.63 -0.01,0.95 0,7.09 1.35,14.13 3.97,20.71 9.02,27.79 -19.91,12.22 -10.9,40.01l1.46 3.72zm0 0l0 0 0 0z"/>
    </g>
    <path class="fil1" d="M1106.48 2353.62l-0.08 -0.01 -1.05 -0.18 -0.3 -1.02c-3.82,-12.85 -8.68,-26 -13.38,-38.71 -6.87,-17.57 -12.74,-35.64 -17.47,-53.93 -3.72,-17.5 -6.34,-35.36 -7.76,-53.12 -1.31,-12.96 -2.67,-26.36 -4.97,-39.55 -1.02,-5.86 2.86,-11.41 6.61,-16.77 3.48,-4.98 6.76,-9.68 6.07,-14.12 -0.7,-4.55 -5.74,-9.54 -10.62,-14.37 -5.34,-5.29 -10.87,-10.76 -11.65,-16.52 -9.88,-72.95 -14.91,-147.3 -14.91,-221.05 0,-5.22 0,-10.85 0,-16.07 1.1,-109.71 6.06,-184.49 14.74,-222.27 23.33,-101.57 131.13,-120.1 148,-122.39 5.53,-14.53 19.43,-24.16 34.96,-24.16 5.35,0 10.65,1.16 15.51,3.38l76.59 35.06c31.38,14.42 55.42,41.26 66.29,74.05l11.38 34.69 5.7 232.85 -31.59 163.97 61.71 92.56c-328.89,180.56 -332.72,217.68 -333.78,217.68z"/>
    <path class="fil3" d="M1542.71 2255.48c-6.82,-23.18 -28.11,-39.11 -52.28,-39.11 -8.44,0 -16.79,1.97 -24.35,5.74l-138.55 -135.37 -19.09 98.83 134.5 113.4c9.82,16.8 27.85,27.13 47.31,27.13 30.26,0 54.8,-24.54 54.8,-54.8 0,-5.36 -0.79,-10.7 -2.34,-15.82l0 0z"/>
    <path class="fil1" d="M1387.81 2262.71l-273.49 -219.33 0.17 -1.49c0.32,-2.83 31.96,-284.72 48.23,-343.27 9.47,-35.45 30.8,-66.66 60.41,-88.32l0.77 -0.49 0.9 0.06c38.13,2.96 69.1,31.98 74.51,69.83 3.5,26.08 5.41,52.56 5.41,78.89 0,62.98 -10.31,125.53 -30.43,185.19l-16.38 48.28 175.21 186.97 -45.31 83.68z"/>
    <path class="fil0" d="M906.77 2060.29l-2.31 -163.87c-0.01,-0.51 -0.02,-1.04 -0.02,-1.55 0,-32.59 25.94,-59.28 58.52,-60.18l16.62 -0.45c0.51,0 1.04,-0.02 1.55,-0.02 32.59,0 59.28,25.95 60.18,58.52l2.32 163.87c0,0.51 0.01,1.03 0.01,1.55 0,32.59 -25.94,59.27 -58.52,60.18l-16.62 0.44c-0.51,0.01 -1.04,0.02 -1.55,0.02 -32.59,0 -59.28,-25.94 -60.18,-58.51l0 0z"/>
    <path class="fil0" d="M1171.8 2453.26c-110.71,-0.13 -232.95,-257.88 -233.08,-368.6l21.68 0c0.01,98.81 112.64,346.93 211.44,346.91 36.88,0 72.85,-11.42 102.99,-32.63l12.5 17.71c-33.61,23.79 -73.88,36.61 -115.09,36.61 -0.12,0 -0.31,0 -0.44,0l0 0z"/>
    <path class="fil0" d="M1412.15 1421.69c-9.2,-2.29 -15.85,-10.32 -16.4,-19.78 -53.06,-46.89 -15.28,-61.29 -4.82,-85.47 -0.03,-0.4 -0.04,-0.81 -0.04,-1.22 0,-11.47 8.96,-20.94 20.41,-21.59l0 0 67.09 -3.79c0.39,-0.02 0.8,-0.03 1.2,-0.03 11.47,0 20.96,8.95 21.61,20.41l4.83 85.47c0.02,0.39 0.03,0.79 0.03,1.19 0,11.47 -8.95,20.96 -20.41,21.62l-67.08 3.79c-0.41,0.02 -0.82,0.03 -1.23,0.03 -1.75,0 -3.5,-0.21 -5.19,-0.63l0 0z"/>
    <path class="fil1" d="M1488.21 1289.36c9.33,2.25 16.09,10.35 16.63,19.92l5.69 87.58c0.04,0.5 0.06,1.01 0.06,1.52 0,5.36 -1.91,10.54 -5.37,14.63 -3.71,4.46 -9.07,7.24 -14.86,7.71l-15.17 1.22 -8.58 -131.83 15.18 -1.22c0.56,-0.04 1.14,-0.07 1.7,-0.07 1.59,0 3.18,0.18 4.73,0.54l-0.01 0z"/>
    <path class="fil0" d="M1119.57 1397.06c-5.95,-1.48 -10.25,-6.66 -10.6,-12.79l-1.28 -22.61c-0.01,-0.26 -0.02,-0.52 -0.02,-0.79 0,-7.42 5.79,-13.54 13.2,-13.96l0 0 302.89 -17.11c0.27,-0.01 0.53,-0.02 0.79,-0.02 7.42,0 13.55,5.79 13.97,13.2l0 0 1.27 22.61c0.02,0.26 0.03,0.52 0.03,0.78 0,7.42 -5.79,13.55 -13.2,13.97l-302.9 17.11c-0.26,0.01 -0.53,0.02 -0.79,0.02 -1.13,0 -2.26,-0.14 -3.36,-0.41l0 0z"/>
    <path class="fil0" d="M1463.73 1342.79c-4.79,-1.2 -8.3,-5.32 -8.7,-10.25l-1.48 -18.34c-0.02,-0.34 -0.04,-0.67 -0.04,-1 0,-6.35 5.15,-11.51 11.5,-11.51 5.97,0 10.95,4.57 11.47,10.51l0.01 0.15 1.48 18.34c0.02,0.3 0.03,0.61 0.03,0.91 0,6 -4.6,11 -10.58,11.49l0 0c-0.31,0.02 -0.62,0.04 -0.93,0.04 -0.92,0 -1.86,-0.12 -2.75,-0.34l-0.01 0z"/>
    <path class="fil0" d="M1465.59 1390.8c-4.98,-1.24 -8.53,-5.64 -8.71,-10.78l-0.62 -18.4c0,-0.12 0,-0.25 0,-0.38 0,-6.35 5.15,-11.51 11.5,-11.51 6.21,0 11.29,4.92 11.5,11.12l0.62 18.4c0.01,0.13 0.01,0.26 0.01,0.39 0,6.2 -4.92,11.29 -11.12,11.5l0 0c-0.13,0 -0.27,0 -0.4,0 -0.94,0 -1.87,-0.11 -2.78,-0.34l0 0z"/>
   </g>
  </g>
 </g>
</svg>
