<?xml version="1.0" encoding="UTF-8"?>
<!DOCTYPE svg PUBLIC "-//W3C//DTD SVG 1.1//EN" "http://www.w3.org/Graphics/SVG/1.1/DTD/svg11.dtd">
<!-- Creator: CorelDRAW 2021 (64-Bit) -->
<svg xmlns="http://www.w3.org/2000/svg" xml:space="preserve" width="188.759mm" height="113.033mm" version="1.1" style="shape-rendering:geometricPrecision; text-rendering:geometricPrecision; image-rendering:optimizeQuality; fill-rule:evenodd; clip-rule:evenodd"
viewBox="0 0 2201.26 1318.16"
 xmlns:xlink="http://www.w3.org/1999/xlink"
 xmlns:xodm="http://www.corel.com/coreldraw/odm/2003">
 <defs>
  <style type="text/css">
   <![CDATA[
    .fil4 {fill:#2F2E41;fill-rule:nonzero}
    .fil6 {fill:#3F3D56;fill-rule:nonzero}
    .fil2 {fill:#4D4D4D;fill-rule:nonzero}
    .fil5 {fill:#666666;fill-rule:nonzero}
    .fil7 {fill:gray;fill-rule:nonzero}
    .fil0 {fill:#999999;fill-rule:nonzero}
    .fil3 {fill:#A0616A;fill-rule:nonzero}
    .fil1 {fill:#B3B3B3;fill-rule:nonzero}
    .fil9 {fill:#CCCCCC;fill-rule:nonzero}
    .fil8 {fill:#FFB8B8;fill-rule:nonzero}
   ]]>
  </style>
 </defs>
 <g id="Layer_x0020_1">
  <metadata id="CorelCorpID_0Corel-Layer"/>
  <g id="_2327999319824">
   <path class="fil0" d="M549.84 1148.66c-0.4,53.12 -4.48,106.22 -11.72,158.71 -0.26,1.85 -0.53,3.7 -0.79,5.54l-497.44 -2.78c-1.46,-1.84 -2.9,-3.69 -4.29,-5.57 -4.64,-6.22 -9,-12.62 -12.99,-19.23 -19.21,-31.88 -28,-69.2 -19.19,-94.95l0.16 -0.4c1.97,-5.58 4.97,-10.8 8.89,-15.27 20.09,-22.61 60.71,-18.84 97.56,-0.59 -33.06,-36.19 -59.38,-81.85 -61.39,-122.61 -1.96,-39.76 18.83,-68.16 41.38,-92.29 0.74,-0.8 1.48,-1.57 2.22,-2.35 0.36,-0.4 0.74,-0.78 1.1,-1.17 17.59,-18.39 38.1,-36.53 67.79,-34.33 32.56,2.41 68.66,29.68 93.96,61.46 25.31,31.76 42.13,67.83 59.18,103.04 17.07,35.18 35.54,71.27 62.93,101.34 -37.1,-46.93 -67.01,-100.32 -78.06,-152.25 -11.05,-51.93 -1.32,-101.8 31.74,-126.26 10.04,-7.19 21.67,-11.89 33.88,-13.67 1.43,-0.24 2.88,-0.43 4.35,-0.6 30.61,-3.48 67.16,7.1 98.25,32.41 34.24,27.86 57.98,69.17 69.8,108.38 11.81,39.21 13.07,76.96 12.68,113.45z"/>
   <path class="fil1" d="M2201.26 1023.19c0,-23.86 -89.79,-43.2 -200.56,-43.2 -110.76,0 -200.56,19.34 -200.56,43.2 0,15.29 36.92,28.71 92.57,36.39l0 236.68c-0,11.07 8.98,20.05 20.05,20.05 11.08,0 20.06,-8.98 20.06,-20.06l0 -232.41c21.2,1.64 44.05,2.54 67.88,2.54 23.83,0 46.68,-0.9 67.88,-2.54l0 232.41c0,11.08 8.98,20.06 20.06,20.06 11.08,0 20.06,-8.98 20.06,-20.06l0 -236.68c55.65,-7.68 92.57,-21.1 92.57,-36.39z"/>
   <path class="fil2" d="M2109.28 541.41c0,-47.71 -38.68,-86.39 -86.39,-86.39 -47.71,0 -86.39,38.68 -86.39,86.39 0,47.71 38.68,86.39 86.39,86.39 47.71,0 86.39,-38.68 86.39,-86.39z"/>
   <polygon class="fil3" points="1807.88,1280.59 1770.05,1280.59 1752.06,1134.68 1807.89,1134.68 "/>
   <path class="fil4" d="M1743.03 1269.78l72.95 0 0 45.93 -118.89 0 0 0c0,-0 0,-0 0,-0 0,-25.36 20.57,-45.93 45.93,-45.93l0 0z"/>
   <polygon class="fil3" points="1748.83,1259.48 1712.74,1248.15 1739.25,1103.55 1792.52,1120.26 "/>
   <path class="fil4" d="M1690.2 1229.75l69.61 21.84 -13.75 43.83 -113.43 -35.6 0 0c0,-0 0,-0 0,-0 7.6,-24.2 33.38,-37.67 57.58,-30.07 0,0 0,0 0,0l0 0z"/>
   <path class="fil5" d="M1761.14 1201.26c-1.66,-0 -3.3,-0.3 -4.85,-0.88l-27.83 -10.43c-5.41,-2.05 -9,-7.24 -9,-13.03 0,-0.99 0.11,-1.99 0.32,-2.96 7.01,-31.5 30.88,-138.76 43.96,-196.28 15.51,-68.24 241.73,-80.92 251.35,-81.42l0.79 -0.04 25.45 31.98c9.2,29.56 6.28,52.61 -8.66,68.52 -43.61,46.43 -173.8,17.62 -189.32,13.97l-69.2 181.65c-2.06,5.38 -7.23,8.94 -13,8.94l0 0z"/>
   <path class="fil5" d="M1801.25 1222.86c-1.66,-0 -3.3,-0.3 -4.85,-0.88l-27.83 -10.43c-5.41,-2.05 -9,-7.24 -9,-13.03 0,-0.99 0.11,-1.99 0.32,-2.96 7.01,-31.5 30.88,-138.76 43.96,-196.28 15.51,-68.24 241.73,-80.92 251.35,-81.42l0.79 -0.04 25.45 31.98c9.2,29.56 6.28,52.61 -8.66,68.52 -43.61,46.42 -173.8,17.62 -189.32,13.97l-69.2 181.65c-2.06,5.38 -7.23,8.94 -13,8.94l0 0z"/>
   <path class="fil3" d="M1720.74 778.49c1.02,1.36 1.94,2.82 2.73,4.32l152.18 16.03 21.91 -30.03 49.65 27.14 -43.02 72.89 -186.63 -47.59c-6.05,5.89 -14.16,9.19 -22.61,9.19 -17.88,0 -32.38,-14.5 -32.38,-32.38 0,-17.88 14.5,-32.38 32.38,-32.38 10.13,0 19.69,4.75 25.81,12.82l-0 0z"/>
   <path class="fil0" d="M2074.37 962.02c-2.2,-0.01 -4.37,-0.54 -6.32,-1.55 -30.43,-15.47 -89.68,-42.27 -144.63,-47.88 -3.8,-0.37 -7.27,-2.34 -9.55,-5.4 -1.81,-2.41 -2.79,-5.35 -2.79,-8.37 0,-0.83 0.07,-1.65 0.22,-2.46 4.96,-27.45 16.33,-97.34 14.87,-153.35 -0.01,-0.62 -0.03,-1.27 -0.03,-1.9 0,-34.77 23.65,-65.11 57.36,-73.59l-0 0c10.03,-2.62 20.29,-4.66 30.57,-6.02 3.2,-0.42 6.41,-0.62 9.62,-0.62 42.25,0 76.51,34.26 76.51,76.51 0,4.3 -0.36,8.61 -1.08,12.84 -9.8,58.05 -19.68,139.12 -11.09,195.72 0.1,0.71 0.16,1.42 0.16,2.14 0,4.47 -2.15,8.67 -5.77,11.28 -2.33,1.71 -5.15,2.64 -8.04,2.65l-0 0z"/>
   <path class="fil0" d="M1928.98 814.37c-1.9,-0 -3.77,-0.4 -5.51,-1.15l-39.64 -17.16c-5.08,-2.2 -8.36,-7.22 -8.36,-12.75 0,-1.89 0.39,-3.77 1.14,-5.51l30.64 -70.79c5.61,-12.99 18.42,-21.41 32.57,-21.41 19.59,0 35.48,15.89 35.48,35.48 0,4.85 -1,9.66 -2.93,14.11l-30.64 70.79c-2.2,5.08 -7.21,8.37 -12.75,8.38l0 0z"/>
   <path class="fil3" d="M2095.51 561.62c0,-41.85 -33.93,-75.78 -75.78,-75.78 -41.85,0 -75.78,33.93 -75.78,75.78 0,41.85 33.93,75.78 75.78,75.78 41.85,0 75.78,-33.93 75.78,-75.78z"/>
   <path class="fil2" d="M1942.58 524.39c35.87,21.88 76.38,35.26 118.26,38.97l-12.47 -14.94c9.06,3.35 18.63,5.26 28.29,5.61 9.66,-0.15 19.78,-3.87 25.26,-11.82 2.81,-4.55 4.3,-9.8 4.3,-15.16 0,-3.95 -0.81,-7.85 -2.38,-11.47 -3.79,-8.5 -9.72,-15.9 -17.18,-21.48 -18.05,-14.28 -40.42,-22.06 -63.44,-22.06 -10.77,0 -21.5,1.71 -31.73,5.04 -10.99,3.29 -20.86,9.62 -28.42,18.24 -7.18,8.86 -21.02,16.76 -17.34,27.56l-3.17 1.49z"/>
   <path class="fil2" d="M2032.47 463.23c-23.89,-24.22 -52.84,-42.96 -84.74,-54.79 -20.48,-7.59 -42.78,-12.28 -64.19,-7.97 -21.42,4.31 -41.67,19.12 -47.64,40.14 -4.89,17.18 0.16,35.68 7.74,51.85 7.58,16.17 17.7,31.17 23.83,47.95 4.4,12.02 6.65,24.74 6.65,37.55 0,60.43 -49.01,109.43 -109.44,109.43 -2.45,0 -4.9,-0.08 -7.34,-0.24 21.04,2.82 40.44,12.71 61,17.97 20.57,5.26 44.84,4.91 60.12,-9.83 16.17,-15.59 16.49,-40.94 15.71,-63.38 -1.16,-33.37 -2.32,-66.74 -3.48,-100.11 -0.59,-17.02 -1.1,-34.58 5.04,-50.47 6.14,-15.88 20.72,-29.79 37.75,-29.65 12.9,0.11 24.33,7.93 34.68,15.64 10.35,7.71 21.3,15.94 34.16,17.08 12.85,1.15 27.53,-8.37 26.57,-21.24m3.57 0.05l0 0 0 0z"/>
   <path class="fil3" d="M1892.31 942.55c-18.74,-0.02 -33.92,-15.22 -33.92,-33.96 0,-18.75 15.2,-33.95 33.95,-33.95 4.48,0 8.92,0.89 13.05,2.61l0 0c1.39,0.59 2.75,1.28 4.05,2.05l138.05 -61.98 3.88 -37.44 59.51 -1.59 -0.39 62.33c-0.15,14.82 -10.02,27.8 -24.26,31.91l-161.44 45.95c-0.31,1.06 -0.68,2.12 -1.11,3.15 -5.29,12.64 -17.66,20.89 -31.37,20.92l0 0z"/>
   <path class="fil0" d="M2105.84 808.85c-1.69,0.85 -3.55,1.36 -5.44,1.47l-43.12 2.65c-0.28,0.02 -0.56,0.03 -0.83,0.03 -7.34,0 -13.41,-5.71 -13.88,-13.03l-4.73 -76.99c-0.04,-0.74 -0.07,-1.49 -0.07,-2.24 0,-19.59 15.89,-35.48 35.48,-35.48 18.77,0 34.3,14.63 35.42,33.36l4.73 76.99c0.02,0.28 0.03,0.56 0.03,0.84 0,5.23 -2.94,10.02 -7.6,12.4l0 0z"/>
   <path class="fil6" d="M2012.14 950.34l-243.75 0c-5.96,0 -10.8,-4.84 -10.8,-10.8l0 0c0,-5.96 4.84,-10.8 10.8,-10.8l243.76 0c5.96,0 10.8,4.84 10.8,10.8l0 0c0,5.96 -4.84,10.8 -10.8,10.8l0 0z"/>
   <path class="fil2" d="M1661.93 930.28l0 -151.19c0.01,-11.07 8.99,-20.05 20.06,-20.06l274.61 0c11.07,0.01 20.05,8.99 20.05,20.05l0 151.19c-0.01,11.07 -8.99,20.05 -20.06,20.05l-274.61 0c-11.07,-0.01 -20.05,-8.99 -20.06,-20.06l0 0z"/>
   <path class="fil7" d="M1837.8 854.69c0,-10.23 -8.29,-18.51 -18.51,-18.51 -10.23,0 -18.51,8.29 -18.51,18.51 0,10.23 8.29,18.51 18.51,18.51 10.23,0 18.51,-8.29 18.51,-18.51z"/>
   <path class="fil8" d="M854.08 676.77c-5.74,-8.69 -15.47,-13.93 -25.89,-13.93 -7.96,0 -15.62,3.06 -21.38,8.55l-97.98 -50.57 6.09 56.97 92.11 39.29c5.76,5.3 13.31,8.25 21.13,8.25 17.23,0 31.2,-13.97 31.2,-31.2 0,-6.18 -1.84,-12.23 -5.28,-17.36l0 0z"/>
   <path class="fil0" d="M767 699.7c-1.82,0.83 -3.8,1.26 -5.79,1.26 -1.9,0 -3.78,-0.39 -5.53,-1.15l-93.07 -40.37c-31.81,-13.78 -57.56,-38.69 -72.39,-70.03l-48.93 -103.28c-6.11,-7.85 -9.43,-17.53 -9.43,-27.48 0,-24.7 20.03,-44.73 44.73,-44.73 13.83,0 26.9,6.41 35.36,17.34l86 159.56 79.41 59.99c3.47,2.63 5.51,6.74 5.51,11.09 0,1.38 -0.21,2.77 -0.61,4.09l-7.79 25.18c-0.84,2.7 -2.48,5.08 -4.7,6.82 -0.85,0.67 -1.78,1.24 -2.77,1.69l0 0z"/>
   <path class="fil8" d="M614.93 288.9c0,-41.85 -33.93,-75.78 -75.78,-75.78 -41.85,0 -75.78,33.93 -75.78,75.78 0,41.85 33.93,75.78 75.78,75.78 41.85,0 75.78,-33.93 75.78,-75.78z"/>
   <polygon class="fil8" points="569.84,1283.04 607.67,1283.04 625.66,1137.13 569.83,1137.13 "/>
   <path class="fil5" d="M680.62 1318.16l-118.89 0.01 -0 -45.93 72.95 -0c25.36,0 45.93,20.57 45.93,45.93l0 0 0 -0z"/>
   <polygon class="fil8" points="446.42,1283.04 484.25,1283.04 502.24,1137.13 446.41,1137.13 "/>
   <path class="fil5" d="M557.2 1318.16l-118.89 0.01 -0 -45.93 72.95 -0c25.36,0 45.93,20.57 45.93,45.93l0 0 0 -0z"/>
   <path class="fil5" d="M433.21 1241.27c-2.21,-2.53 -3.44,-5.78 -3.44,-9.15 0,-0.61 0.04,-1.23 0.12,-1.84l66.23 -496.72 164.55 27.94 17.56 -10.54 -45.41 471.3c-0.78,6.56 -6.06,11.67 -12.64,12.23l-49.82 4.15c-0.38,0.03 -0.77,0.05 -1.15,0.05 -7.67,0 -13.88,-6.22 -13.88,-13.88 0,-0.27 0.01,-0.53 0.02,-0.8l12.9 -224.45c0,-0.03 0,-0.06 0,-0.09 0,-0.85 -0.69,-1.54 -1.54,-1.54 -0.7,0 -1.31,0.47 -1.49,1.14l-63.82 236.66c-1.64,6.05 -7.13,10.27 -13.41,10.27l-44.33 0c0,-0 0,-0 0,-0 -4,0 -7.81,-1.73 -10.45,-4.74l-0 0z"/>
   <path class="fil0" d="M547.17 768.34c-2,-1.81 -4.61,-2.82 -7.32,-2.82 -2.39,0 -4.72,0.79 -6.62,2.24l-32.9 25.59c-2.43,1.9 -5.44,2.93 -8.53,2.93 -6.19,0 -11.63,-4.1 -13.34,-10.05 -16.14,-56.51 -52.7,-198.76 -43.69,-298.88 5.11,-56.75 54.11,-99.88 109.24,-96.26 37.69,2.51 62.49,24.26 73.7,64.62 27.53,99.11 57.79,280.92 63.57,316.36 0.12,0.75 0.19,1.51 0.19,2.27 0,4.88 -2.58,9.41 -6.78,11.89 -15.56,9.34 -33.35,14.36 -51.51,14.49 -21.96,-0 -48.3,-7.65 -76.03,-32.38z"/>
   <path class="fil8" d="M559.58 803.6c0.07,-0.84 0.1,-1.68 0.1,-2.52 0,-17.13 -13.89,-31.03 -31.03,-31.03 -0.99,0 -1.97,0.05 -2.95,0.14l-45.89 -100.26 -30.37 48.59 48.23 87.76c2.46,15.09 15.5,26.18 30.79,26.18 16.32,0 29.89,-12.59 31.11,-28.86l-0 0z"/>
   <path class="fil0" d="M476.91 767.91c-3.83,-0.92 -7.1,-3.43 -8.98,-6.89l-48.32 -89.2c-11.32,-20.91 -17.28,-44.37 -17.28,-68.16 0,-10.62 1.19,-21.26 3.53,-31.62l25.23 -111.46c0.1,-24.63 20.1,-44.55 44.74,-44.55 24.7,0 44.73,20.03 44.73,44.73 0,0.09 0,0.17 0,0.26l-30.8 178.63 25.47 96.21c0.3,1.15 0.45,2.34 0.45,3.53 0,4.56 -2.23,8.83 -5.97,11.44l-21.67 15c-2.32,1.6 -5.08,2.47 -7.91,2.47 0,0 -0,0 -0,0 -0,0 -0.01,0 -0.01,0 -1.08,0 -2.16,-0.13 -3.21,-0.38l-0 0z"/>
   <polygon class="fil2" points="514.41,536.35 486.64,653.6 526.76,752.33 498.99,656.68 "/>
   <path class="fil2" d="M495.9 351.22c-0.3,0 -0.63,0.01 -0.94,0.01 -6.42,0 -12.8,-1.22 -18.76,-3.58 -2.76,-1.06 -5.62,-1.94 -8.38,-3 -24.32,-9.4 -40.34,-35.3 -40.91,-61.36 -0.57,-26.06 12.92,-51.36 32.97,-68.03 20.04,-16.67 46,-25.23 72,-27.21 28,-2.13 59.53,4.97 75.18,28.29 4.16,6.21 7.08,13.74 4.61,21.23 -0.74,2.26 -2.06,4.29 -3.83,5.88 -6.99,6.22 -13.95,1.54 -21.08,1.13 -9.79,-0.57 -18.59,7.36 -21.75,16.64 -3.16,9.28 -1.77,19.51 0.78,28.97 1.93,5.69 3.17,11.63 3.65,17.62 0.03,0.4 0.04,0.8 0.04,1.21 0,5.7 -2.75,11.06 -7.38,14.39 -6.12,3.7 -14.15,1.56 -20.28,-2.13 -6.12,-3.69 -11.41,-8.83 -18.02,-11.54 -6.61,-2.72 -15.5,-2.11 -19.35,3.91 -1.22,2.19 -2.05,4.58 -2.45,7.06 -3.45,15.72 -2.66,14.79 -6.11,30.51l-0 0z"/>
   <path class="fil1" d="M1152.96 608.4c-1.86,-2.35 -2.87,-5.27 -2.87,-8.27 0,-1.07 0.13,-2.13 0.38,-3.17 5.7,-23.98 8.63,-48.65 8.63,-73.32 0,-24.67 -2.93,-49.34 -8.63,-73.32 -0.25,-1.04 -0.38,-2.1 -0.38,-3.17 0,-3 1.01,-5.91 2.87,-8.27 2.48,-3.16 6.29,-5.02 10.31,-5.02 0.01,0 0.03,0 0.04,0l123.02 0c6.49,0.01 12.02,4.72 13.07,11.12 4,26.03 6.02,52.33 6.02,78.64 0,26.31 -2.02,52.62 -5.99,78.61 -1.08,6.44 -6.61,11.14 -13.1,11.16l-123.02 0c-0.01,0 -0.03,0 -0.04,0 -4.02,0 -7.83,-1.85 -10.31,-5.02l-0 0z"/>
   <path class="fil1" d="M962.64 174.52c-1.86,-2.35 -2.87,-5.27 -2.87,-8.26 0,-1.07 0.13,-2.13 0.38,-3.17 5.7,-23.98 8.63,-48.65 8.63,-73.32 0,-24.67 -2.93,-49.34 -8.63,-73.32 -0.25,-1.04 -0.38,-2.1 -0.38,-3.17 0,-3 1.01,-5.91 2.87,-8.26 2.48,-3.17 6.29,-5.02 10.31,-5.02 0.01,0 0.03,0 0.04,0l123.03 0c6.49,0.01 12.02,4.72 13.07,11.12 4,26.03 6.02,52.33 6.02,78.64 0,26.31 -2.02,52.62 -5.99,78.61 -1.08,6.44 -6.61,11.14 -13.1,11.16l-123.03 0c-0.01,0 -0.03,0 -0.04,0 -4.02,0 -7.83,-1.85 -10.31,-5.02z"/>
   <path class="fil0" d="M1265.37 319.65c-4,-26.03 -6.02,-52.33 -6.02,-78.64 0,-26.31 2.02,-52.62 5.99,-78.61 1.08,-6.44 6.61,-11.14 13.1,-11.16l123.03 0c0.01,0 0.03,0 0.04,0 4.02,0 7.83,1.85 10.31,5.02 1.86,2.35 2.87,5.27 2.87,8.26 0,1.07 -0.13,2.13 -0.38,3.16 -5.7,23.98 -8.63,48.65 -8.63,73.32 0,24.67 2.93,49.34 8.63,73.32 0.25,1.04 0.38,2.1 0.38,3.17 0,3 -1.01,5.91 -2.87,8.26 -2.48,3.17 -6.29,5.02 -10.31,5.02 -0.01,0 -0.03,0 -0.04,0l-123.03 0c-6.49,-0.01 -12.02,-4.72 -13.07,-11.13l0 0z"/>
   <path class="fil1" d="M750.33 314.16c-4,-26.02 -6.02,-52.33 -6.02,-78.64 0,-26.31 2.02,-52.62 5.99,-78.62 1.07,-6.43 6.61,-11.13 13.1,-11.15l123.03 0c0.01,0 0.03,0 0.04,0 4.02,0 7.83,1.85 10.31,5.02 1.86,2.35 2.87,5.27 2.87,8.26 0,1.07 -0.13,2.13 -0.38,3.16 -5.7,23.98 -8.63,48.65 -8.63,73.32 0,24.67 2.93,49.34 8.63,73.32 0.25,1.04 0.38,2.1 0.38,3.17 0,3 -1.01,5.91 -2.87,8.26 -2.48,3.17 -6.29,5.02 -10.31,5.02 -0.01,0 -0.03,0 -0.04,0l-123.03 0c-6.49,-0.01 -12.02,-4.72 -13.07,-11.13z"/>
   <path class="fil0" d="M780.76 677.24c-1.89,-2.39 -2.92,-5.36 -2.92,-8.4 0,-1.08 0.13,-2.17 0.39,-3.22 5.8,-24.37 8.77,-49.45 8.77,-74.52 0,-25.07 -2.98,-50.15 -8.78,-74.51 -0.26,-1.06 -0.39,-2.14 -0.39,-3.23 0,-3.05 1.03,-6.01 2.92,-8.4 2.52,-3.22 6.39,-5.1 10.48,-5.1 0.01,0 0.03,0 0.04,0l125.05 0c6.6,0.01 12.22,4.8 13.29,11.31 4.07,26.45 6.12,53.19 6.12,79.93 0,26.74 -2.05,53.48 -6.09,79.9 -1.09,6.54 -6.72,11.33 -13.32,11.34l-125.05 0c-0.01,-0 -0.03,-0 -0.04,-0 -4.09,0 -7.96,-1.88 -10.48,-5.1l-0 0z"/>
   <path class="fil9" d="M892.2 567.18l-65.87 0c-5.11,-0.01 -9.25,-4.15 -9.26,-9.26l-0 -3.93c0.01,-5.11 4.15,-9.25 9.26,-9.26l65.87 0c5.11,0 9.25,4.15 9.26,9.26l0 3.93c-0,5.11 -4.15,9.25 -9.26,9.26l0 0z"/>
   <path class="fil9" d="M892.2 605.9l-65.87 0c-5.11,-0.01 -9.25,-4.15 -9.26,-9.26l0 -3.93c0,-5.11 4.15,-9.25 9.26,-9.26l65.87 0c5.11,0 9.25,4.15 9.26,9.26l0 3.93c-0,5.11 -4.15,9.25 -9.26,9.26l0 0z"/>
   <path class="fil9" d="M848.57 221.89l-64.56 0c-5.11,-0 -9.25,-4.15 -9.26,-9.26l0 -3.62c0,-5.11 4.15,-9.25 9.26,-9.26l64.56 0c5.11,0 9.25,4.15 9.26,9.26l0 3.62c-0,5.11 -4.15,9.25 -9.26,9.26l-0 0z"/>
   <path class="fil9" d="M1261.04 493.82l-64.56 0c-5.11,-0 -9.25,-4.15 -9.26,-9.26l0 -3.62c0,-5.11 4.15,-9.25 9.26,-9.26l64.56 0c5.11,0 9.25,4.15 9.25,9.26l0 3.62c-0,5.11 -4.15,9.25 -9.26,9.26l0 0z"/>
   <path class="fil9" d="M1261.04 539.52l-64.56 0c-5.11,-0 -9.25,-4.15 -9.26,-9.26l0 -3.62c0,-5.11 4.15,-9.25 9.26,-9.26l64.56 0c5.11,0 9.25,4.15 9.25,9.26l0 3.62c-0,5.11 -4.15,9.25 -9.26,9.26l0 0z"/>
   <path class="fil9" d="M1261.04 585.23l-64.56 0c-5.11,-0 -9.25,-4.15 -9.26,-9.26l-0 -3.62c0.01,-5.11 4.15,-9.25 9.26,-9.26l64.56 0c5.11,0 9.25,4.15 9.25,9.26l0 3.62c-0,5.11 -4.15,9.25 -9.26,9.26l0 0z"/>
   <path class="fil9" d="M848.57 259.98l-64.56 0c-5.11,-0 -9.25,-4.15 -9.26,-9.26l0 -3.62c0,-5.11 4.15,-9.25 9.26,-9.26l64.56 0c5.11,0 9.25,4.15 9.26,9.25l0 3.62c-0,5.11 -4.15,9.25 -9.26,9.26l-0 0z"/>
   <path class="fil9" d="M1071.27 67.56l-64.56 0c-5.11,-0 -9.25,-4.15 -9.26,-9.26l0 -3.62c0,-5.11 4.15,-9.25 9.26,-9.26l64.56 0c5.11,0 9.25,4.15 9.26,9.26l0 3.62c-0,5.11 -4.15,9.25 -9.26,9.26z"/>
   <path class="fil9" d="M1365.86 231.19l-64.56 0c-5.11,-0.01 -9.25,-4.15 -9.26,-9.26l0 -3.62c0,-5.11 4.15,-9.25 9.25,-9.26l64.56 0c5.11,0 9.25,4.15 9.26,9.26l0 3.62c-0,5.11 -4.15,9.25 -9.26,9.26l0 0z"/>
  </g>
 </g>
</svg>
