<?xml version="1.0" encoding="UTF-8"?>
<!DOCTYPE svg PUBLIC "-//W3C//DTD SVG 1.1//EN" "http://www.w3.org/Graphics/SVG/1.1/DTD/svg11.dtd">
<!-- Creator: CorelDRAW 2021 (64-Bit) -->
<svg xmlns="http://www.w3.org/2000/svg" xml:space="preserve" width="16.4462mm" height="3.1665mm" version="1.1" style="shape-rendering:geometricPrecision; text-rendering:geometricPrecision; image-rendering:optimizeQuality; fill-rule:evenodd; clip-rule:evenodd"
viewBox="0 0 213.22 41.05"
 xmlns:xlink="http://www.w3.org/1999/xlink"
 xmlns:xodm="http://www.corel.com/coreldraw/odm/2003">
 <defs>
  <style type="text/css">
   <![CDATA[
    .fil0 {fill:white;fill-rule:nonzero}
   ]]>
  </style>
 </defs>
 <g id="Layer_x0020_1">
  <metadata id="CorelCorpID_0Corel-Layer"/>
  <path class="fil0" d="M23.33 20.86c2.23,0.48 4.03,1.58 5.38,3.32 1.35,1.74 2.03,3.72 2.03,5.95 0,3.22 -1.13,5.77 -3.37,7.66 -2.25,1.88 -5.39,2.83 -9.41,2.83l-17.95 0 0 -38.53 17.34 0c3.92,0 6.98,0.9 9.19,2.69 2.21,1.79 3.32,4.23 3.32,7.3 0,2.27 -0.6,4.15 -1.78,5.65 -1.19,1.5 -2.77,2.54 -4.75,3.13zm-13.94 -3.18l6.15 0c1.54,0 2.72,-0.34 3.54,-1.02 0.82,-0.68 1.24,-1.68 1.24,-2.99 0,-1.32 -0.41,-2.32 -1.24,-3.02 -0.82,-0.69 -2,-1.04 -3.54,-1.04l-6.15 0 0 8.07zm6.92 15.37c1.57,0 2.79,-0.36 3.65,-1.07 0.86,-0.71 1.29,-1.75 1.29,-3.1 0,-1.35 -0.45,-2.42 -1.35,-3.18 -0.9,-0.77 -2.13,-1.15 -3.7,-1.15l-6.81 0 0 8.51 6.92 0z"/>
  <polygon id="_1" class="fil0" points="45.55,0 45.55,40.61 36.17,40.61 36.17,0 "/>
  <path id="_2" class="fil0" d="M81.23 24.81c0,0.88 -0.06,1.79 -0.16,2.74l-21.24 0c0.15,1.9 0.76,3.36 1.84,4.36 1.08,1.01 2.41,1.51 3.98,1.51 2.34,0 3.97,-0.99 4.89,-2.96l9.99 0c-0.51,2.01 -1.44,3.82 -2.77,5.43 -1.34,1.61 -3.01,2.87 -5.02,3.79 -2.01,0.92 -4.26,1.37 -6.75,1.37 -3,0 -5.67,-0.64 -8.01,-1.92 -2.34,-1.28 -4.17,-3.11 -5.49,-5.49 -1.32,-2.38 -1.98,-5.16 -1.98,-8.34 0,-3.18 0.65,-5.96 1.95,-8.34 1.3,-2.38 3.12,-4.21 5.46,-5.49 2.34,-1.28 5.03,-1.92 8.07,-1.92 2.96,0 5.6,0.62 7.9,1.87 2.31,1.24 4.11,3.02 5.41,5.32 1.3,2.31 1.95,4.99 1.95,8.07zm-9.6 -2.47c0,-1.61 -0.55,-2.89 -1.65,-3.84 -1.1,-0.95 -2.47,-1.43 -4.12,-1.43 -1.57,0 -2.9,0.46 -3.98,1.37 -1.08,0.92 -1.75,2.21 -2,3.9l11.75 0z"/>
  <path id="_3" class="fil0" d="M104.83 9.66c3.59,0 6.45,1.16 8.59,3.48 2.14,2.32 3.21,5.52 3.21,9.58l0 17.89 -9.33 0 0 -16.63c0,-2.05 -0.53,-3.64 -1.59,-4.77 -1.06,-1.13 -2.49,-1.7 -4.28,-1.7 -1.79,0 -3.22,0.57 -4.28,1.7 -1.06,1.13 -1.59,2.73 -1.59,4.77l0 16.63 -9.39 0 0 -30.63 9.39 0 0 4.06c0.95,-1.35 2.23,-2.42 3.84,-3.21 1.61,-0.79 3.42,-1.18 5.43,-1.18z"/>
  <path id="_4" class="fil0" d="M121.29 25.25c0,-3.15 0.6,-5.91 1.78,-8.29 1.19,-2.38 2.81,-4.21 4.86,-5.49 2.05,-1.28 4.34,-1.92 6.86,-1.92 2.01,0 3.85,0.42 5.52,1.26 1.66,0.84 2.97,1.98 3.92,3.4l0 -14.21 9.38 0 0 40.61 -9.38 0 0 -4.39c-0.88,1.46 -2.13,2.63 -3.76,3.51 -1.63,0.88 -3.52,1.32 -5.68,1.32 -2.52,0 -4.81,-0.65 -6.86,-1.95 -2.05,-1.3 -3.67,-3.15 -4.86,-5.54 -1.19,-2.4 -1.78,-5.17 -1.78,-8.31zm22.94 0.05c0,-2.34 -0.65,-4.19 -1.95,-5.54 -1.3,-1.35 -2.88,-2.03 -4.75,-2.03 -1.87,0 -3.45,0.67 -4.75,2 -1.3,1.34 -1.95,3.18 -1.95,5.52 0,2.34 0.65,4.2 1.95,5.57 1.3,1.37 2.88,2.06 4.75,2.06 1.87,0 3.45,-0.68 4.75,-2.03 1.3,-1.35 1.95,-3.2 1.95,-5.54z"/>
  <path id="_5" class="fil0" d="M189.29 24.81c0,0.88 -0.06,1.79 -0.16,2.74l-21.24 0c0.15,1.9 0.76,3.36 1.84,4.36 1.08,1.01 2.41,1.51 3.98,1.51 2.34,0 3.97,-0.99 4.89,-2.96l9.99 0c-0.51,2.01 -1.44,3.82 -2.77,5.43 -1.34,1.61 -3.01,2.87 -5.02,3.79 -2.01,0.92 -4.26,1.37 -6.75,1.37 -3,0 -5.67,-0.64 -8.01,-1.92 -2.34,-1.28 -4.17,-3.11 -5.49,-5.49 -1.32,-2.38 -1.98,-5.16 -1.98,-8.34 0,-3.18 0.65,-5.96 1.95,-8.34 1.3,-2.38 3.12,-4.21 5.46,-5.49 2.34,-1.28 5.03,-1.92 8.07,-1.92 2.96,0 5.6,0.62 7.9,1.87 2.31,1.24 4.11,3.02 5.41,5.32 1.3,2.31 1.95,4.99 1.95,8.07zm-9.6 -2.47c0,-1.61 -0.55,-2.89 -1.65,-3.84 -1.1,-0.95 -2.47,-1.43 -4.12,-1.43 -1.57,0 -2.9,0.46 -3.98,1.37 -1.08,0.92 -1.75,2.21 -2,3.9l11.75 0z"/>
  <path id="_6" class="fil0" d="M203.62 15.09c1.1,-1.68 2.47,-3.01 4.12,-3.98 1.65,-0.97 3.48,-1.45 5.49,-1.45l0 9.93 -2.58 0c-2.34,0 -4.1,0.5 -5.27,1.51 -1.17,1.01 -1.76,2.77 -1.76,5.3l0 14.21 -9.39 0 0 -30.63 9.39 0 0 5.1z"/>
 </g>
</svg>
