<?xml version="1.0" encoding="UTF-8"?>
<!DOCTYPE svg PUBLIC "-//W3C//DTD SVG 1.1//EN" "http://www.w3.org/Graphics/SVG/1.1/DTD/svg11.dtd">
<!-- Creator: CorelDRAW 2021 (64-Bit) -->
<svg xmlns="http://www.w3.org/2000/svg" xml:space="preserve" width="22.9529mm" height="3.4248mm" version="1.1" style="shape-rendering:geometricPrecision; text-rendering:geometricPrecision; image-rendering:optimizeQuality; fill-rule:evenodd; clip-rule:evenodd"
viewBox="0 0 394.52 58.87"
 xmlns:xlink="http://www.w3.org/1999/xlink"
 xmlns:xodm="http://www.corel.com/coreldraw/odm/2003">
 <defs>
  <style type="text/css">
   <![CDATA[
    .fil0 {fill:white;fill-rule:nonzero}
   ]]>
  </style>
 </defs>
 <g id="Layer_x0020_1">
  <metadata id="CorelCorpID_0Corel-Layer"/>
  <path class="fil0" d="M-0 32.67c0,-5.04 1.09,-9.54 3.27,-13.5 2.18,-3.95 5.23,-7.03 9.13,-9.24 3.91,-2.21 8.33,-3.31 13.28,-3.31 6.06,0 11.25,1.6 15.57,4.8 4.32,3.2 7.2,7.57 8.66,13.1l-13.68 0c-1.02,-2.13 -2.46,-3.76 -4.33,-4.87 -1.87,-1.12 -3.99,-1.67 -6.37,-1.67 -3.83,0 -6.94,1.33 -9.31,4 -2.38,2.67 -3.56,6.23 -3.56,10.7 0,4.46 1.19,8.03 3.56,10.7 2.38,2.67 5.48,4 9.31,4 2.38,0 4.5,-0.56 6.37,-1.67 1.87,-1.12 3.31,-2.74 4.33,-4.87l13.68 0c-1.45,5.53 -4.34,9.88 -8.66,13.06 -4.32,3.18 -9.51,4.77 -15.57,4.77 -4.95,0 -9.37,-1.1 -13.28,-3.31 -3.91,-2.21 -6.95,-5.28 -9.13,-9.21 -2.18,-3.93 -3.27,-8.42 -3.27,-13.46z"/>
  <path id="_1" class="fil0" d="M63.81 13.46c-2.18,0 -3.97,-0.64 -5.35,-1.93 -1.38,-1.29 -2.07,-2.87 -2.07,-4.77 0,-1.94 0.69,-3.55 2.07,-4.84 1.38,-1.29 3.16,-1.93 5.35,-1.93 2.13,0 3.89,0.64 5.28,1.93 1.38,1.29 2.07,2.9 2.07,4.84 0,1.89 -0.69,3.48 -2.07,4.77 -1.38,1.29 -3.14,1.93 -5.28,1.93zm6.19 4.22l0 40.6 -12.44 0 0 -40.6 12.44 0z"/>
  <path id="_2" class="fil0" d="M103.76 17.24c4.75,0 8.55,1.54 11.39,4.62 2.84,3.08 4.26,7.31 4.26,12.7l0 23.72 -12.37 0 0 -22.05c0,-2.72 -0.7,-4.83 -2.11,-6.33 -1.41,-1.5 -3.3,-2.26 -5.68,-2.26 -2.38,0 -4.27,0.75 -5.68,2.26 -1.41,1.5 -2.11,3.61 -2.11,6.33l0 22.05 -12.44 0 0 -40.6 12.44 0 0 5.39c1.26,-1.79 2.96,-3.21 5.09,-4.26 2.13,-1.04 4.54,-1.56 7.2,-1.56z"/>
  <path id="_3" class="fil0" d="M166.33 37.33c0,1.16 -0.07,2.38 -0.22,3.64l-28.16 0c0.19,2.52 1.01,4.45 2.44,5.78 1.43,1.33 3.19,2 5.28,2 3.1,0 5.26,-1.31 6.48,-3.93l13.24 0c-0.68,2.67 -1.9,5.07 -3.67,7.2 -1.77,2.13 -3.99,3.81 -6.66,5.02 -2.67,1.21 -5.65,1.82 -8.95,1.82 -3.98,0 -7.52,-0.85 -10.62,-2.55 -3.11,-1.7 -5.53,-4.12 -7.28,-7.28 -1.75,-3.15 -2.62,-6.84 -2.62,-11.06 0,-4.22 0.86,-7.91 2.58,-11.06 1.72,-3.15 4.14,-5.58 7.24,-7.28 3.1,-1.7 6.67,-2.55 10.7,-2.55 3.93,0 7.42,0.82 10.48,2.47 3.06,1.65 5.45,4 7.17,7.06 1.72,3.06 2.58,6.62 2.58,10.7zm-12.73 -3.27c0,-2.13 -0.73,-3.83 -2.18,-5.09 -1.46,-1.26 -3.27,-1.89 -5.46,-1.89 -2.09,0 -3.84,0.61 -5.28,1.82 -1.43,1.21 -2.32,2.94 -2.66,5.17l15.57 0z"/>
  <path id="_4" class="fil0" d="M224.69 17.24c5.04,0 9.06,1.53 12.04,4.58 2.98,3.06 4.47,7.3 4.47,12.73l0 23.72 -12.37 0 0 -22.05c0,-2.62 -0.69,-4.64 -2.07,-6.08 -1.38,-1.43 -3.29,-2.15 -5.71,-2.15 -2.43,0 -4.33,0.72 -5.71,2.15 -1.38,1.43 -2.07,3.46 -2.07,6.08l0 22.05 -12.37 0 0 -22.05c0,-2.62 -0.69,-4.64 -2.07,-6.08 -1.38,-1.43 -3.29,-2.15 -5.71,-2.15 -2.43,0 -4.33,0.72 -5.71,2.15 -1.38,1.43 -2.07,3.46 -2.07,6.08l0 22.05 -12.44 0 0 -40.6 12.44 0 0 5.09c1.26,-1.7 2.91,-3.04 4.95,-4.04 2.04,-1 4.34,-1.49 6.91,-1.49 3.06,0 5.78,0.65 8.18,1.96 2.4,1.31 4.28,3.18 5.64,5.6 1.41,-2.23 3.32,-4.05 5.75,-5.46 2.43,-1.41 5.07,-2.11 7.93,-2.11z"/>
  <path id="_5" class="fil0" d="M247.46 37.91c0,-4.17 0.79,-7.83 2.37,-10.99 1.58,-3.15 3.72,-5.58 6.44,-7.28 2.72,-1.7 5.75,-2.55 9.09,-2.55 2.86,0 5.37,0.58 7.53,1.75 2.16,1.16 3.82,2.69 4.98,4.58l0 -5.75 12.44 0 0 40.6 -12.44 0 0 -5.75c-1.21,1.89 -2.9,3.42 -5.06,4.58 -2.16,1.16 -4.67,1.75 -7.53,1.75 -3.3,0 -6.31,-0.86 -9.02,-2.58 -2.72,-1.72 -4.86,-4.17 -6.44,-7.35 -1.58,-3.18 -2.37,-6.85 -2.37,-11.02zm30.42 0.07c0,-3.1 -0.86,-5.55 -2.58,-7.35 -1.72,-1.79 -3.82,-2.69 -6.29,-2.69 -2.47,0 -4.57,0.89 -6.29,2.66 -1.72,1.77 -2.58,4.21 -2.58,7.31 0,3.1 0.86,5.57 2.58,7.39 1.72,1.82 3.82,2.73 6.29,2.73 2.47,0 4.57,-0.9 6.29,-2.69 1.72,-1.79 2.58,-4.25 2.58,-7.35z"/>
  <path id="_6" class="fil0" d="M298.4 48.82l0 -10.04 22.99 -32.89 13.9 0 0 32.16 5.97 0 0 10.77 -5.97 0 0 9.46 -12.44 0 0 -9.46 -24.45 0zm25.32 -29.25l-12.22 18.48 12.22 0 0 -18.48z"/>
  <path id="_7" class="fil0" d="M367.74 7.2c5.39,0 10.09,1.07 14.12,3.2 4.03,2.13 7.14,5.13 9.35,8.99 2.21,3.86 3.31,8.31 3.31,13.35 0,5 -1.1,9.43 -3.31,13.32 -2.21,3.88 -5.34,6.89 -9.39,9.02 -4.05,2.13 -8.74,3.2 -14.08,3.2l-19.14 0 0 -51.08 19.14 0zm-0.8 40.31c4.7,0 8.37,-1.29 10.99,-3.86 2.62,-2.57 3.93,-6.21 3.93,-10.91 0,-4.7 -1.31,-8.37 -3.93,-10.99 -2.62,-2.62 -6.28,-3.93 -10.99,-3.93l-5.89 0 0 29.69 5.89 0z"/>
 </g>
</svg>
