<?xml version="1.0" encoding="UTF-8"?>
<!DOCTYPE svg PUBLIC "-//W3C//DTD SVG 1.1//EN" "http://www.w3.org/Graphics/SVG/1.1/DTD/svg11.dtd">
<!-- Creator: CorelDRAW 2021 (64-Bit) -->
<svg xmlns="http://www.w3.org/2000/svg" xml:space="preserve" width="33.066mm" height="3.4248mm" version="1.1" style="shape-rendering:geometricPrecision; text-rendering:geometricPrecision; image-rendering:optimizeQuality; fill-rule:evenodd; clip-rule:evenodd"
viewBox="0 0 761.9 78.91"
 xmlns:xlink="http://www.w3.org/1999/xlink"
 xmlns:xodm="http://www.corel.com/coreldraw/odm/2003">
 <defs>
  <style type="text/css">
   <![CDATA[
    .fil0 {fill:white;fill-rule:nonzero}
   ]]>
  </style>
 </defs>
 <g id="Layer_x0020_1">
  <metadata id="CorelCorpID_0Corel-Layer"/>
  <path class="fil0" d="M25.65 9.66c7.22,0 13.53,1.43 18.92,4.29 5.4,2.86 9.58,6.88 12.53,12.05 2.96,5.17 4.44,11.14 4.44,17.9 0,6.7 -1.48,12.65 -4.44,17.85 -2.96,5.2 -7.15,9.24 -12.58,12.09 -5.43,2.86 -11.72,4.29 -18.88,4.29l-25.65 0 0 -68.48 25.65 0zm-1.07 54.04c6.31,0 11.22,-1.72 14.73,-5.17 3.51,-3.45 5.27,-8.32 5.27,-14.63 0,-6.31 -1.76,-11.22 -5.27,-14.73 -3.51,-3.51 -8.42,-5.27 -14.73,-5.27l-7.9 0 0 39.8 7.9 0z"/>
  <path id="_1" class="fil0" d="M67.6 50.82c0,-5.59 1.06,-10.5 3.17,-14.73 2.11,-4.23 4.99,-7.48 8.63,-9.75 3.64,-2.28 7.71,-3.41 12.19,-3.41 3.84,0 7.2,0.78 10.1,2.34 2.89,1.56 5.12,3.61 6.68,6.14l0 -7.71 16.68 0 0 54.43 -16.68 0 0 -7.71c-1.63,2.53 -3.89,4.58 -6.78,6.15 -2.89,1.56 -6.26,2.34 -10.09,2.34 -4.42,0 -8.45,-1.15 -12.09,-3.46 -3.64,-2.31 -6.52,-5.59 -8.63,-9.85 -2.11,-4.26 -3.17,-9.18 -3.17,-14.78zm40.77 0.1c0,-4.16 -1.15,-7.44 -3.46,-9.85 -2.31,-2.41 -5.12,-3.61 -8.44,-3.61 -3.32,0 -6.13,1.19 -8.44,3.56 -2.31,2.37 -3.46,5.64 -3.46,9.8 0,4.16 1.15,7.46 3.46,9.9 2.31,2.44 5.12,3.66 8.44,3.66 3.32,0 6.13,-1.2 8.44,-3.61 2.31,-2.41 3.46,-5.69 3.46,-9.85z"/>
  <polygon id="_2" class="fil0" points="161.63,62.53 173.43,23.7 191.18,23.7 171.87,78.13 151.29,78.13 131.97,23.7 149.82,23.7 "/>
  <path id="_3" class="fil0" d="M206.59 18.05c-2.93,0 -5.32,-0.86 -7.17,-2.59 -1.85,-1.72 -2.78,-3.85 -2.78,-6.39 0,-2.6 0.93,-4.76 2.78,-6.49 1.85,-1.72 4.24,-2.59 7.17,-2.59 2.86,0 5.22,0.86 7.07,2.59 1.85,1.72 2.78,3.88 2.78,6.49 0,2.54 -0.93,4.67 -2.78,6.39 -1.85,1.72 -4.21,2.59 -7.07,2.59zm8.29 5.66l0 54.43 -16.68 0 0 -54.43 16.68 0z"/>
  <path id="_4" class="fil0" d="M260.14 23.12c6.37,0 11.46,2.06 15.27,6.19 3.8,4.13 5.71,9.8 5.71,17.02l0 31.8 -16.58 0 0 -29.56c0,-3.64 -0.94,-6.47 -2.83,-8.49 -1.88,-2.02 -4.42,-3.02 -7.61,-3.02 -3.19,0 -5.72,1.01 -7.61,3.02 -1.88,2.02 -2.83,4.85 -2.83,8.49l0 29.56 -16.68 0 0 -54.43 16.68 0 0 7.22c1.69,-2.41 3.97,-4.31 6.83,-5.71 2.86,-1.4 6.08,-2.1 9.66,-2.1z"/>
  <path id="_5" class="fil0" d="M289.4 50.92c0,-5.66 1.15,-10.6 3.46,-14.83 2.31,-4.23 5.53,-7.48 9.66,-9.75 4.13,-2.28 8.86,-3.41 14.19,-3.41 6.83,0 12.53,1.79 17.12,5.36 4.59,3.58 7.59,8.62 9.02,15.12l-17.75 0c-1.5,-4.16 -4.39,-6.24 -8.68,-6.24 -3.06,0 -5.5,1.19 -7.32,3.56 -1.82,2.37 -2.73,5.77 -2.73,10.19 0,4.42 0.91,7.82 2.73,10.19 1.82,2.37 4.26,3.56 7.32,3.56 4.29,0 7.18,-2.08 8.68,-6.24l17.75 0c-1.43,6.37 -4.45,11.38 -9.07,15.02 -4.62,3.64 -10.31,5.46 -17.07,5.46 -5.33,0 -10.06,-1.14 -14.19,-3.41 -4.13,-2.28 -7.35,-5.53 -9.66,-9.75 -2.31,-4.23 -3.46,-9.17 -3.46,-14.83z"/>
  <path id="_6" class="fil0" d="M360.12 18.05c-2.93,0 -5.32,-0.86 -7.17,-2.59 -1.85,-1.72 -2.78,-3.85 -2.78,-6.39 0,-2.6 0.93,-4.76 2.78,-6.49 1.85,-1.72 4.24,-2.59 7.17,-2.59 2.86,0 5.22,0.86 7.07,2.59 1.85,1.72 2.78,3.88 2.78,6.49 0,2.54 -0.93,4.67 -2.78,6.39 -1.85,1.72 -4.21,2.59 -7.07,2.59zm8.29 5.66l0 54.43 -16.68 0 0 -54.43 16.68 0z"/>
  <path id="_7" class="fil0" d="M415.43 78.13l-14.24 -25.85 -4 0 0 25.85 -16.68 0 0 -68.48 27.99 0c5.4,0 10,0.94 13.8,2.83 3.8,1.88 6.65,4.47 8.53,7.75 1.89,3.29 2.83,6.94 2.83,10.97 0,4.55 -1.28,8.62 -3.85,12.19 -2.57,3.58 -6.36,6.11 -11.36,7.61l15.8 27.12 -18.83 0zm-18.24 -37.65l10.34 0c3.06,0 5.35,-0.75 6.88,-2.24 1.53,-1.5 2.29,-3.61 2.29,-6.34 0,-2.6 -0.76,-4.65 -2.29,-6.15 -1.53,-1.5 -3.82,-2.24 -6.88,-2.24l-10.34 0 0 16.97z"/>
  <path id="_8" class="fil0" d="M495.41 50.04c0,1.56 -0.1,3.19 -0.29,4.88l-37.75 0c0.26,3.38 1.35,5.97 3.27,7.75 1.92,1.79 4.28,2.68 7.07,2.68 4.16,0 7.06,-1.76 8.68,-5.27l17.75 0c-0.91,3.58 -2.55,6.8 -4.92,9.66 -2.37,2.86 -5.35,5.11 -8.93,6.73 -3.58,1.63 -7.58,2.44 -12,2.44 -5.33,0 -10.08,-1.14 -14.24,-3.41 -4.16,-2.28 -7.41,-5.53 -9.76,-9.75 -2.34,-4.23 -3.51,-9.17 -3.51,-14.83 0,-5.66 1.15,-10.6 3.46,-14.83 2.31,-4.23 5.54,-7.48 9.71,-9.75 4.16,-2.28 8.94,-3.41 14.34,-3.41 5.27,0 9.95,1.1 14.05,3.32 4.1,2.21 7.3,5.36 9.61,9.46 2.31,4.1 3.46,8.88 3.46,14.34zm-17.07 -4.39c0,-2.86 -0.98,-5.14 -2.93,-6.83 -1.95,-1.69 -4.39,-2.54 -7.32,-2.54 -2.8,0 -5.15,0.81 -7.07,2.44 -1.92,1.63 -3.1,3.94 -3.56,6.93l20.88 0z"/>
  <path id="_9" class="fil0" d="M526.33 78.91c-4.75,0 -8.97,-0.81 -12.68,-2.44 -3.71,-1.62 -6.63,-3.85 -8.78,-6.68 -2.15,-2.83 -3.35,-6 -3.61,-9.51l16.48 0c0.2,1.88 1.07,3.41 2.63,4.59 1.56,1.17 3.48,1.76 5.76,1.76 2.08,0 3.69,-0.41 4.83,-1.22 1.14,-0.81 1.71,-1.87 1.71,-3.17 0,-1.56 -0.81,-2.72 -2.44,-3.46 -1.63,-0.75 -4.26,-1.58 -7.9,-2.49 -3.9,-0.91 -7.15,-1.87 -9.76,-2.88 -2.6,-1.01 -4.84,-2.6 -6.73,-4.78 -1.88,-2.18 -2.83,-5.12 -2.83,-8.83 0,-3.12 0.86,-5.97 2.58,-8.53 1.72,-2.57 4.26,-4.6 7.61,-6.1 3.35,-1.5 7.33,-2.24 11.95,-2.24 6.83,0 12.21,1.69 16.14,5.07 3.94,3.38 6.19,7.87 6.78,13.46l-15.41 0c-0.26,-1.89 -1.09,-3.38 -2.49,-4.49 -1.4,-1.1 -3.24,-1.66 -5.51,-1.66 -1.95,0 -3.45,0.37 -4.49,1.12 -1.04,0.75 -1.56,1.77 -1.56,3.07 0,1.56 0.83,2.73 2.49,3.51 1.66,0.78 4.24,1.56 7.76,2.34 4.03,1.04 7.32,2.06 9.85,3.07 2.53,1.01 4.76,2.63 6.68,4.88 1.92,2.24 2.91,5.25 2.97,9.02 0,3.19 -0.89,6.03 -2.68,8.53 -1.79,2.5 -4.36,4.47 -7.71,5.9 -3.35,1.43 -7.24,2.15 -11.66,2.15z"/>
  <path id="_10" class="fil0" d="M583.4 78.91c-5.33,0 -10.13,-1.14 -14.39,-3.41 -4.26,-2.28 -7.61,-5.53 -10.05,-9.75 -2.44,-4.23 -3.66,-9.17 -3.66,-14.83 0,-5.59 1.24,-10.52 3.71,-14.78 2.47,-4.26 5.85,-7.53 10.15,-9.8 4.29,-2.28 9.1,-3.41 14.44,-3.41 5.33,0 10.15,1.14 14.44,3.41 4.29,2.28 7.67,5.54 10.15,9.8 2.47,4.26 3.71,9.18 3.71,14.78 0,5.59 -1.25,10.52 -3.75,14.78 -2.5,4.26 -5.92,7.53 -10.24,9.8 -4.32,2.28 -9.15,3.41 -14.49,3.41zm0 -14.44c3.19,0 5.9,-1.17 8.15,-3.51 2.24,-2.34 3.37,-5.69 3.37,-10.05 0,-4.36 -1.09,-7.71 -3.27,-10.05 -2.18,-2.34 -4.86,-3.51 -8.05,-3.51 -3.25,0 -5.95,1.15 -8.1,3.46 -2.15,2.31 -3.22,5.67 -3.22,10.09 0,4.36 1.06,7.71 3.17,10.05 2.11,2.34 4.76,3.51 7.95,3.51z"/>
  <polygon id="_11" class="fil0" points="637.44,5.95 637.44,78.13 620.76,78.13 620.76,5.95 "/>
  <polygon id="_12" class="fil0" points="674.01,62.53 685.82,23.7 703.57,23.7 684.25,78.13 663.67,78.13 644.36,23.7 662.21,23.7 "/>
  <path id="_13" class="fil0" d="M761.9 50.04c0,1.56 -0.1,3.19 -0.29,4.88l-37.75 0c0.26,3.38 1.35,5.97 3.27,7.75 1.92,1.79 4.28,2.68 7.07,2.68 4.16,0 7.06,-1.76 8.68,-5.27l17.75 0c-0.91,3.58 -2.55,6.8 -4.92,9.66 -2.37,2.86 -5.35,5.11 -8.93,6.73 -3.58,1.63 -7.58,2.44 -12,2.44 -5.33,0 -10.08,-1.14 -14.24,-3.41 -4.16,-2.28 -7.41,-5.53 -9.76,-9.75 -2.34,-4.23 -3.51,-9.17 -3.51,-14.83 0,-5.66 1.15,-10.6 3.46,-14.83 2.31,-4.23 5.54,-7.48 9.71,-9.75 4.16,-2.28 8.94,-3.41 14.34,-3.41 5.27,0 9.95,1.1 14.05,3.32 4.1,2.21 7.3,5.36 9.61,9.46 2.31,4.1 3.46,8.88 3.46,14.34zm-17.07 -4.39c0,-2.86 -0.98,-5.14 -2.93,-6.83 -1.95,-1.69 -4.39,-2.54 -7.32,-2.54 -2.8,0 -5.15,0.81 -7.07,2.44 -1.92,1.63 -3.1,3.94 -3.56,6.93l20.88 0z"/>
 </g>
</svg>
