<?xml version="1.0" encoding="UTF-8"?>
<!DOCTYPE svg PUBLIC "-//W3C//DTD SVG 1.1//EN" "http://www.w3.org/Graphics/SVG/1.1/DTD/svg11.dtd">
<!-- Creator: CorelDRAW 2021 (64-Bit) -->
<svg xmlns="http://www.w3.org/2000/svg" xml:space="preserve" width="3062px" height="1530px" version="1.1" style="shape-rendering:geometricPrecision; text-rendering:geometricPrecision; image-rendering:optimizeQuality; fill-rule:evenodd; clip-rule:evenodd"
viewBox="0 0 2792.46 1394.75"
 xmlns:xlink="http://www.w3.org/1999/xlink"
 xmlns:xodm="http://www.corel.com/coreldraw/odm/2003">
 <defs>
  <style type="text/css">
   <![CDATA[
    .fil1 {fill:#3F3D56;fill-rule:nonzero;fill-opacity:0.058824}
    .fil0 {fill:#B1B1B1;fill-rule:nonzero;fill-opacity:0.058824}
    .fil2 {fill:white;fill-rule:nonzero;fill-opacity:0.058824}
   ]]>
  </style>
 </defs>
 <g id="Layer_x0020_1">
  <metadata id="CorelCorpID_0Corel-Layer"/>
  <g id="_2364176523552">
   <path class="fil0" d="M590.01 0c-0.3,0 -0.72,0 -1.01,0 -75.53,0 -150.4,14.62 -220.34,42.92 -2.83,1.16 -5.67,2.33 -8.51,3.52 -218.3,92.06 -360.15,305.99 -360.15,542.87 0,0.21 0,0.5 0,0.72l0 643.8c0.01,14.13 11.49,25.61 25.65,25.62l0.51 0.05c494.28,89.76 974.81,135.25 1428.63,135.25 6.8,0 13.6,-0.01 20.39,-0.03 446.09,-1.36 880.46,-46.84 1291.03,-135.2l0.6 -0.06c14.16,-0.02 25.64,-11.5 25.65,-25.65l0 -1208.17c-0.01,-14.15 -11.49,-25.63 -25.65,-25.64l-2176.8 0z"/>
   <path id="f4300551-56ef-4356-8f30-d0080b223343-758" class="fil1" d="M2125.12 513.45c-9.25,0.15 -16.67,7.69 -16.67,16.94 0,9.25 7.42,16.79 16.67,16.94l424.81 0.01c0.09,-0.01 0.2,0 0.29,0 9.36,0 16.95,-7.59 16.95,-16.95 0,-9.25 -7.43,-16.8 -16.69,-16.94 -0.18,0 -0.37,0 -0.55,0l-424.81 0z" data-name="Path 40"/>
   <path class="fil2" d="M2646.27 508.73c-0.63,0.63 -0.98,1.47 -0.98,2.36 0,0.88 0.35,1.73 0.97,2.36l14.32 14.31 -35.3 0c-1.84,0 -3.33,1.49 -3.33,3.33 0,1.84 1.49,3.34 3.33,3.34l35.3 0 -14.32 14.31c-0.62,0.62 -0.97,1.47 -0.97,2.36 0,1.84 1.49,3.33 3.33,3.33 0.89,0 1.73,-0.35 2.36,-0.98l20 -20c0.63,-0.62 0.98,-1.47 0.98,-2.36 0,-0.88 -0.35,-1.73 -0.98,-2.35l-20 -20.01c-0.63,-0.62 -1.47,-0.98 -2.36,-0.98 -0.88,0 -1.73,0.36 -2.36,0.98l0.01 0z"/>
   <path class="fil2" d="M2028.6 508.73c0.62,0.63 0.98,1.47 0.98,2.36 0,0.88 -0.36,1.73 -0.98,2.36l-14.31 14.31 35.29 0c0,0 0.01,0 0.01,0 1.84,0 3.33,1.49 3.33,3.33 0,1.84 -1.49,3.34 -3.33,3.34 0,0 -0.01,0 -0.01,0l-35.29 0 14.31 14.31c0.62,0.62 0.98,1.47 0.98,2.36 0,1.84 -1.5,3.33 -3.34,3.33 -0.88,0 -1.73,-0.35 -2.36,-0.98l-20 -20c-0.62,-0.62 -0.98,-1.47 -0.98,-2.36 0,-0.88 0.36,-1.73 0.98,-2.35l20 -20.01c0.63,-0.62 1.48,-0.98 2.36,-0.98 0.89,0 1.73,0.36 2.36,0.98l0 0z"/>
   <g>
    <path class="fil2" d="M2160.48 143.58c0,-10.05 -8.15,-18.2 -18.21,-18.2 -10.05,0 -18.21,8.15 -18.21,18.2 0,10.06 8.16,18.21 18.21,18.21 10.06,0 18.21,-8.15 18.21,-18.21z"/>
    <path class="fil2" d="M2236.34 143.58c0,-10.05 -8.15,-18.2 -18.2,-18.2 -10.06,0 -18.21,8.15 -18.21,18.2 0,10.06 8.15,18.21 18.21,18.21 10.05,0 18.2,-8.15 18.2,-18.21z"/>
    <path class="fil2" d="M2312.21 143.58c0,-10.05 -8.15,-18.2 -18.21,-18.2 -10.05,0 -18.21,8.15 -18.21,18.2 0,10.06 8.16,18.21 18.21,18.21 10.06,0 18.21,-8.15 18.21,-18.21z"/>
    <path class="fil2" d="M2388.07 143.58c0,-10.05 -8.15,-18.2 -18.2,-18.2 -10.06,0 -18.21,8.15 -18.21,18.2 0,10.06 8.15,18.21 18.21,18.21 10.05,0 18.2,-8.15 18.2,-18.21z"/>
    <path class="fil2" d="M2463.94 143.58c0,-10.05 -8.15,-18.2 -18.21,-18.2 -10.05,0 -18.2,8.15 -18.2,18.2 0,10.06 8.15,18.21 18.2,18.21 10.06,0 18.21,-8.15 18.21,-18.21z"/>
    <path class="fil2" d="M2539.81 143.58c0,-10.05 -8.16,-18.2 -18.21,-18.2 -10.06,0 -18.21,8.15 -18.21,18.2 0,10.06 8.15,18.21 18.21,18.21 10.05,0 18.21,-8.15 18.21,-18.21z"/>
    <path class="fil2" d="M2615.67 143.58c0,-10.05 -8.15,-18.2 -18.21,-18.2 -10.05,0 -18.2,8.15 -18.2,18.2 0,10.06 8.15,18.21 18.2,18.21 10.06,0 18.21,-8.15 18.21,-18.21z"/>
    <path class="fil2" d="M2160.48 201.24c0,-10.05 -8.15,-18.21 -18.21,-18.21 -10.05,0 -18.21,8.16 -18.21,18.21 0,10.06 8.16,18.21 18.21,18.21 10.06,0 18.21,-8.15 18.21,-18.21z"/>
    <path class="fil2" d="M2236.34 201.24c0,-10.05 -8.15,-18.21 -18.2,-18.21 -10.06,0 -18.21,8.16 -18.21,18.21 0,10.06 8.15,18.21 18.21,18.21 10.05,0 18.2,-8.15 18.2,-18.21z"/>
    <path class="fil2" d="M2312.21 201.24c0,-10.05 -8.15,-18.21 -18.21,-18.21 -10.05,0 -18.21,8.16 -18.21,18.21 0,10.06 8.16,18.21 18.21,18.21 10.06,0 18.21,-8.15 18.21,-18.21z"/>
    <path class="fil2" d="M2388.07 201.24c0,-10.05 -8.15,-18.21 -18.2,-18.21 -10.06,0 -18.21,8.16 -18.21,18.21 0,10.06 8.15,18.21 18.21,18.21 10.05,0 18.2,-8.15 18.2,-18.21z"/>
    <path class="fil2" d="M2463.94 201.24c0,-10.05 -8.15,-18.21 -18.21,-18.21 -10.05,0 -18.2,8.16 -18.2,18.21 0,10.06 8.15,18.21 18.2,18.21 10.06,0 18.21,-8.15 18.21,-18.21z"/>
    <path class="fil2" d="M2539.81 201.24c0,-10.05 -8.16,-18.21 -18.21,-18.21 -10.06,0 -18.21,8.16 -18.21,18.21 0,10.06 8.15,18.21 18.21,18.21 10.05,0 18.21,-8.15 18.21,-18.21z"/>
    <path class="fil2" d="M2615.67 201.24c0,-10.05 -8.15,-18.21 -18.21,-18.21 -10.05,0 -18.2,8.16 -18.2,18.21 0,10.06 8.15,18.21 18.2,18.21 10.06,0 18.21,-8.15 18.21,-18.21z"/>
    <path class="fil2" d="M2160.48 258.9c0,-10.06 -8.15,-18.21 -18.21,-18.21 -10.05,0 -18.21,8.15 -18.21,18.21 0,10.05 8.16,18.21 18.21,18.21 10.06,0 18.21,-8.16 18.21,-18.21z"/>
    <path class="fil2" d="M2236.34 258.9c0,-10.06 -8.15,-18.21 -18.2,-18.21 -10.06,0 -18.21,8.15 -18.21,18.21 0,10.05 8.15,18.21 18.21,18.21 10.05,0 18.2,-8.16 18.2,-18.21z"/>
    <path class="fil2" d="M2312.21 258.9c0,-10.06 -8.15,-18.21 -18.21,-18.21 -10.05,0 -18.21,8.15 -18.21,18.21 0,10.05 8.16,18.21 18.21,18.21 10.06,0 18.21,-8.16 18.21,-18.21z"/>
    <path class="fil2" d="M2388.07 258.9c0,-10.06 -8.15,-18.21 -18.2,-18.21 -10.06,0 -18.21,8.15 -18.21,18.21 0,10.05 8.15,18.21 18.21,18.21 10.05,0 18.2,-8.16 18.2,-18.21z"/>
    <path class="fil2" d="M2463.94 258.9c0,-10.06 -8.15,-18.21 -18.21,-18.21 -10.05,0 -18.2,8.15 -18.2,18.21 0,10.05 8.15,18.21 18.2,18.21 10.06,0 18.21,-8.16 18.21,-18.21z"/>
    <path class="fil2" d="M2539.81 258.9c0,-10.06 -8.16,-18.21 -18.21,-18.21 -10.06,0 -18.21,8.15 -18.21,18.21 0,10.05 8.15,18.21 18.21,18.21 10.05,0 18.21,-8.16 18.21,-18.21z"/>
    <path class="fil2" d="M2615.67 258.9c0,-10.06 -8.15,-18.21 -18.21,-18.21 -10.05,0 -18.2,8.15 -18.2,18.21 0,10.05 8.15,18.21 18.2,18.21 10.06,0 18.21,-8.16 18.21,-18.21z"/>
    <path class="fil2" d="M2160.48 316.56c0,-10.06 -8.15,-18.21 -18.21,-18.21 -10.05,0 -18.21,8.15 -18.21,18.21 0,10.05 8.16,18.2 18.21,18.2 10.06,0 18.21,-8.15 18.21,-18.2z"/>
    <path class="fil2" d="M2236.34 316.56c0,-10.06 -8.15,-18.21 -18.2,-18.21 -10.06,0 -18.21,8.15 -18.21,18.21 0,10.05 8.15,18.2 18.21,18.2 10.05,0 18.2,-8.15 18.2,-18.2z"/>
    <path class="fil2" d="M2160.48 374.21c0,-10.05 -8.15,-18.2 -18.21,-18.2 -10.05,0 -18.21,8.15 -18.21,18.2 0,10.06 8.16,18.21 18.21,18.21 10.06,0 18.21,-8.15 18.21,-18.21z"/>
    <path class="fil2" d="M2236.34 374.21c0,-10.05 -8.15,-18.2 -18.2,-18.2 -10.06,0 -18.21,8.15 -18.21,18.2 0,10.06 8.15,18.21 18.21,18.21 10.05,0 18.2,-8.15 18.2,-18.21z"/>
    <path class="fil2" d="M2312.21 374.21c0,-10.05 -8.15,-18.2 -18.21,-18.2 -10.05,0 -18.21,8.15 -18.21,18.2 0,10.06 8.16,18.21 18.21,18.21 10.06,0 18.21,-8.15 18.21,-18.21z"/>
    <path class="fil2" d="M2312.21 316.56c0,-10.06 -8.15,-18.21 -18.21,-18.21 -10.05,0 -18.21,8.15 -18.21,18.21 0,10.05 8.16,18.2 18.21,18.2 10.06,0 18.21,-8.15 18.21,-18.2z"/>
    <path class="fil2" d="M2388.07 316.56c0,-10.06 -8.15,-18.21 -18.2,-18.21 -10.06,0 -18.21,8.15 -18.21,18.21 0,10.05 8.15,18.2 18.21,18.2 10.05,0 18.2,-8.15 18.2,-18.2z"/>
    <path class="fil2" d="M2463.94 316.56c0,-10.06 -8.15,-18.21 -18.21,-18.21 -10.05,0 -18.2,8.15 -18.2,18.21 0,10.05 8.15,18.2 18.2,18.2 10.06,0 18.21,-8.15 18.21,-18.2z"/>
    <path class="fil2" d="M2539.81 316.56c0,-10.06 -8.16,-18.21 -18.21,-18.21 -10.06,0 -18.21,8.15 -18.21,18.21 0,10.05 8.15,18.2 18.21,18.2 10.05,0 18.21,-8.15 18.21,-18.2z"/>
    <path class="fil2" d="M2615.67 316.56c0,-10.06 -8.15,-18.21 -18.21,-18.21 -10.05,0 -18.2,8.15 -18.2,18.21 0,10.05 8.15,18.2 18.2,18.2 10.06,0 18.21,-8.15 18.21,-18.2z"/>
   </g>
   <path class="fil1" d="M1881.08 1069.85c-55.5,0 -100.5,-45.01 -100.5,-100.51 0,-55.5 45,-100.5 100.5,-100.5 55.5,0 100.51,45 100.51,100.5 -0.05,55.48 -45.03,100.46 -100.51,100.51l0 0zm100.51 -295.82c-52.35,0 -94.81,42.45 -94.81,94.81 0,52.35 42.46,94.8 94.81,94.8 52.35,0 94.81,-42.45 94.81,-94.8 -1.53,-52.82 -44.82,-94.85 -97.66,-94.85 -53.95,0 -97.7,43.75 -97.7,97.69 0,0.95 0.01,1.92 0.04,2.86l100.51 -100.51z"/>
   <path class="fil2" d="M1919.62 959.71l-28.9 0 0 -28.9c0,-5.32 -4.32,-9.63 -9.64,-9.63 -5.32,0 -9.63,4.31 -9.63,9.63l0 28.9 -28.9 0c-5.32,0 -9.63,4.31 -9.63,9.63 0,5.32 4.31,9.64 9.63,9.64l28.9 0 0 28.9c0,5.31 4.31,9.63 9.63,9.63 5.32,0 9.64,-4.32 9.64,-9.63l0 -28.9 28.9 0c5.32,0 9.63,-4.32 9.63,-9.64 0,-5.32 -4.31,-9.63 -9.63,-9.63l0 0z"/>
   <g>
    <path class="fil2" d="M168.25 1067.88c0,-7.91 -6.41,-14.32 -14.31,-14.32 -7.91,0 -14.32,6.41 -14.32,14.32 0,7.9 6.41,14.31 14.32,14.31 7.9,0 14.31,-6.41 14.31,-14.31z"/>
    <path class="fil2" d="M168.25 1008.23c0,-7.91 -6.41,-14.32 -14.31,-14.32 -7.91,0 -14.32,6.41 -14.32,14.32 0,7.9 6.41,14.31 14.32,14.31 7.9,0 14.31,-6.41 14.31,-14.31z"/>
    <path class="fil2" d="M168.25 948.58c0,-7.91 -6.41,-14.31 -14.31,-14.31 -7.91,0 -14.32,6.4 -14.32,14.31 0,7.91 6.41,14.32 14.32,14.32 7.9,0 14.31,-6.41 14.31,-14.32z"/>
    <path class="fil2" d="M168.25 888.93c0,-7.9 -6.41,-14.31 -14.31,-14.31 -7.91,0 -14.32,6.41 -14.32,14.31 0,7.91 6.41,14.32 14.32,14.32 7.9,0 14.31,-6.41 14.31,-14.32z"/>
    <path class="fil2" d="M168.25 829.29c0,-7.91 -6.41,-14.32 -14.31,-14.32 -7.91,0 -14.32,6.41 -14.32,14.32 0,7.9 6.41,14.31 14.32,14.31 7.9,0 14.31,-6.41 14.31,-14.31z"/>
    <path class="fil2" d="M168.25 769.64c0,-7.91 -6.41,-14.32 -14.31,-14.32 -7.91,0 -14.32,6.41 -14.32,14.32 0,7.9 6.41,14.31 14.32,14.31 7.9,0 14.31,-6.41 14.31,-14.31z"/>
    <path class="fil2" d="M168.25 709.99c0,-7.9 -6.41,-14.31 -14.31,-14.31 -7.91,0 -14.32,6.41 -14.32,14.31 0,7.91 6.41,14.32 14.32,14.32 7.9,0 14.31,-6.41 14.31,-14.32z"/>
    <path class="fil2" d="M213.58 1067.88c0,-7.91 -6.4,-14.32 -14.31,-14.32 -7.91,0 -14.32,6.41 -14.32,14.32 0,7.9 6.41,14.31 14.32,14.31 7.91,0 14.31,-6.41 14.31,-14.31z"/>
    <path class="fil2" d="M213.58 1008.23c0,-7.91 -6.4,-14.32 -14.31,-14.32 -7.91,0 -14.32,6.41 -14.32,14.32 0,7.9 6.41,14.31 14.32,14.31 7.91,0 14.31,-6.41 14.31,-14.31z"/>
    <path class="fil2" d="M213.58 948.58c0,-7.91 -6.4,-14.31 -14.31,-14.31 -7.91,0 -14.32,6.4 -14.32,14.31 0,7.91 6.41,14.32 14.32,14.32 7.91,0 14.31,-6.41 14.31,-14.32z"/>
    <path class="fil2" d="M213.58 888.93c0,-7.9 -6.4,-14.31 -14.31,-14.31 -7.91,0 -14.32,6.41 -14.32,14.31 0,7.91 6.41,14.32 14.32,14.32 7.91,0 14.31,-6.41 14.31,-14.32z"/>
    <path class="fil2" d="M213.58 829.29c0,-7.91 -6.4,-14.32 -14.31,-14.32 -7.91,0 -14.32,6.41 -14.32,14.32 0,7.9 6.41,14.31 14.32,14.31 7.91,0 14.31,-6.41 14.31,-14.31z"/>
    <path class="fil2" d="M213.58 769.64c0,-7.91 -6.4,-14.32 -14.31,-14.32 -7.91,0 -14.32,6.41 -14.32,14.32 0,7.9 6.41,14.31 14.32,14.31 7.91,0 14.31,-6.41 14.31,-14.31z"/>
    <path class="fil2" d="M213.58 709.99c0,-7.9 -6.4,-14.31 -14.31,-14.31 -7.91,0 -14.32,6.41 -14.32,14.31 0,7.91 6.41,14.32 14.32,14.32 7.91,0 14.31,-6.41 14.31,-14.32z"/>
    <path class="fil2" d="M258.92 1067.88c0,-7.91 -6.41,-14.32 -14.32,-14.32 -7.91,0 -14.31,6.41 -14.31,14.32 0,7.9 6.4,14.31 14.31,14.31 7.91,0 14.32,-6.41 14.32,-14.31z"/>
    <path class="fil2" d="M258.92 1008.23c0,-7.91 -6.41,-14.32 -14.32,-14.32 -7.91,0 -14.31,6.41 -14.31,14.32 0,7.9 6.4,14.31 14.31,14.31 7.91,0 14.32,-6.41 14.32,-14.31z"/>
    <path class="fil2" d="M258.92 948.58c0,-7.91 -6.41,-14.31 -14.32,-14.31 -7.91,0 -14.31,6.4 -14.31,14.31 0,7.91 6.4,14.32 14.31,14.32 7.91,0 14.32,-6.41 14.32,-14.32z"/>
    <path class="fil2" d="M258.92 888.93c0,-7.9 -6.41,-14.31 -14.32,-14.31 -7.91,0 -14.31,6.41 -14.31,14.31 0,7.91 6.4,14.32 14.31,14.32 7.91,0 14.32,-6.41 14.32,-14.32z"/>
    <path class="fil2" d="M258.92 829.29c0,-7.91 -6.41,-14.32 -14.32,-14.32 -7.91,0 -14.31,6.41 -14.31,14.32 0,7.9 6.4,14.31 14.31,14.31 7.91,0 14.32,-6.41 14.32,-14.31z"/>
    <path class="fil2" d="M258.92 769.64c0,-7.91 -6.41,-14.32 -14.32,-14.32 -7.91,0 -14.31,6.41 -14.31,14.32 0,7.9 6.4,14.31 14.31,14.31 7.91,0 14.32,-6.41 14.32,-14.31z"/>
    <path class="fil2" d="M258.92 709.99c0,-7.9 -6.41,-14.31 -14.32,-14.31 -7.91,0 -14.31,6.41 -14.31,14.31 0,7.91 6.4,14.32 14.31,14.32 7.91,0 14.32,-6.41 14.32,-14.32z"/>
    <path class="fil2" d="M304.25 1067.88c0,-7.91 -6.41,-14.32 -14.32,-14.32 -7.9,0 -14.31,6.41 -14.31,14.32 0,7.9 6.41,14.31 14.31,14.31 7.91,0 14.32,-6.41 14.32,-14.31z"/>
    <path class="fil2" d="M304.25 1008.23c0,-7.91 -6.41,-14.32 -14.32,-14.32 -7.9,0 -14.31,6.41 -14.31,14.32 0,7.9 6.41,14.31 14.31,14.31 7.91,0 14.32,-6.41 14.32,-14.31z"/>
    <path class="fil2" d="M349.58 1067.88c0,-7.91 -6.41,-14.32 -14.31,-14.32 -7.91,0 -14.32,6.41 -14.32,14.32 0,7.9 6.41,14.31 14.32,14.31 7.9,0 14.31,-6.41 14.31,-14.31z"/>
    <path class="fil2" d="M349.58 1008.23c0,-7.91 -6.41,-14.32 -14.31,-14.32 -7.91,0 -14.32,6.41 -14.32,14.32 0,7.9 6.41,14.31 14.32,14.31 7.9,0 14.31,-6.41 14.31,-14.31z"/>
    <path class="fil2" d="M349.58 948.58c0,-7.91 -6.41,-14.31 -14.31,-14.31 -7.91,0 -14.32,6.4 -14.32,14.31 0,7.91 6.41,14.32 14.32,14.32 7.9,0 14.31,-6.41 14.31,-14.32z"/>
    <path class="fil2" d="M304.25 948.58c0,-7.91 -6.41,-14.31 -14.32,-14.31 -7.9,0 -14.31,6.4 -14.31,14.31 0,7.91 6.41,14.32 14.31,14.32 7.91,0 14.32,-6.41 14.32,-14.32z"/>
    <path class="fil2" d="M304.25 888.93c0,-7.9 -6.41,-14.31 -14.32,-14.31 -7.9,0 -14.31,6.41 -14.31,14.31 0,7.91 6.41,14.32 14.31,14.32 7.91,0 14.32,-6.41 14.32,-14.32z"/>
    <path class="fil2" d="M304.25 829.29c0,-7.91 -6.41,-14.32 -14.32,-14.32 -7.9,0 -14.31,6.41 -14.31,14.32 0,7.9 6.41,14.31 14.31,14.31 7.91,0 14.32,-6.41 14.32,-14.31z"/>
    <path class="fil2" d="M304.25 769.64c0,-7.91 -6.41,-14.32 -14.32,-14.32 -7.9,0 -14.31,6.41 -14.31,14.32 0,7.9 6.41,14.31 14.31,14.31 7.91,0 14.32,-6.41 14.32,-14.31z"/>
    <path class="fil2" d="M304.25 709.99c0,-7.9 -6.41,-14.31 -14.32,-14.31 -7.9,0 -14.31,6.41 -14.31,14.31 0,7.91 6.41,14.32 14.31,14.32 7.91,0 14.32,-6.41 14.32,-14.32z"/>
   </g>
   <path class="fil1" d="M1417.34 94.04l-950.98 0c-9.72,0.01 -17.61,7.89 -17.62,17.62l0 813.18c0.01,9.72 7.9,17.61 17.62,17.61l950.98 0.01c9.72,-0.01 17.61,-7.9 17.61,-17.62l0 -813.19c0,-9.72 -7.89,-17.6 -17.61,-17.61l0 0zm28.17 848.42c0,5.83 -4.72,10.56 -10.56,10.58l-968.59 0.01c-5.83,-0.02 -10.56,-4.75 -10.56,-10.58 0,-0.01 0,-0.01 0,-0.02l0 -830.8c0,0 0,-0.01 0,-0.01 0,-5.83 4.73,-10.57 10.56,-10.58l950.98 0c5.83,0.02 10.55,4.76 10.56,10.59l17.61 830.81z"/>
   <path class="fil2" d="M685.87 797.86c0,1.26 -0.04,2.51 -0.1,3.73 -1.99,38.1 -33.48,67.99 -71.64,67.99 -38.15,0 -69.65,-29.89 -71.63,-67.99 -0.07,-1.22 -0.1,-2.48 -0.1,-3.73 0,-0.01 0,-0.04 0,-0.04 0,-39.62 32.12,-71.74 71.73,-71.74 39.62,0 71.74,32.12 71.74,71.74 0,0 0,0.03 0,0.04l0 0z"/>
   <path class="fil1" d="M1343.44 750.03l-563.65 0c-6.6,0.01 -11.94,5.36 -11.94,11.96 0,6.59 5.34,11.94 11.94,11.95l563.65 0.01c6.6,-0.02 11.94,-5.37 11.94,-11.96 0,-6.6 -5.34,-11.95 -11.94,-11.96l0 0z"/>
   <path class="fil2" d="M1022.33 821.78l-242.54 0c-6.59,0 -11.94,5.35 -11.94,11.94 0,6.6 5.35,11.94 11.94,11.94l242.54 0.01c6.59,-0.01 11.94,-5.35 11.94,-11.95 0,-6.59 -5.35,-11.94 -11.94,-11.94l0 0z"/>
   <path class="fil2" d="M1643.27 665.58l-950.98 0c-13.44,-0.02 -24.34,-10.92 -24.35,-24.37l0 -417.33c0.01,-13.45 10.91,-24.35 24.35,-24.36l950.98 0c13.45,0.01 24.35,10.91 24.36,24.36l0 417.33c-0.01,13.45 -10.91,24.35 -24.36,24.37l0 0zm-950.98 -457.51c-8.72,0.01 -15.8,7.08 -15.8,15.81l-0.01 417.33c0.01,8.73 7.09,15.81 15.82,15.82l950.97 0c8.73,-0.01 15.8,-7.09 15.81,-15.82l0 -417.33c-0.01,-8.73 -7.08,-15.8 -15.81,-15.81l-950.98 0z"/>
   <path class="fil2" d="M885.96 351.73c-6.6,0 -11.95,5.36 -11.95,11.96 0,6.6 5.35,11.96 11.95,11.96l563.64 0c6.6,0 11.96,-5.36 11.96,-11.96 0,-6.6 -5.36,-11.96 -11.96,-11.96l-563.64 0z"/>
   <path class="fil2" d="M885.96 421.01c-6.6,0 -11.95,5.36 -11.95,11.96 0,6.6 5.35,11.95 11.95,11.95l563.64 0c6.6,-0.01 11.94,-5.36 11.94,-11.95 0,-6.6 -5.34,-11.95 -11.94,-11.96l-563.64 0z"/>
   <path class="fil2" d="M885.96 489.45c-6.6,0 -11.95,5.35 -11.95,11.95 0,6.61 5.35,11.96 11.95,11.96l242.54 0c6.59,-0.01 11.94,-5.36 11.94,-11.96 0,-6.59 -5.35,-11.94 -11.94,-11.95l-242.54 0z"/>
   <path class="fil2" d="M1800.06 842.39l-95.51 -134.8 30.92 6.44c0.29,0.06 0.58,0.09 0.87,0.09 2.36,0 4.28,-1.91 4.28,-4.28 0,-2.02 -1.42,-3.77 -3.41,-4.18l-46.07 -9.6 -6.22 46.65c-0.03,0.19 -0.04,0.39 -0.04,0.58 0,2.36 1.91,4.28 4.28,4.28 2.14,0 3.96,-1.6 4.24,-3.73l4.17 -31.32 95.52 134.81c0.8,1.13 2.1,1.8 3.49,1.8 2.36,0 4.27,-1.91 4.27,-4.27 0,-0.89 -0.28,-1.75 -0.79,-2.47l0 0z"/>
   <path class="fil1" d="M1281.3 1234.72l-678.9 0c-6.94,0 -12.57,-5.63 -12.57,-12.57l-0.01 -168.4c0.01,-6.95 5.64,-12.57 12.58,-12.58l678.9 0c6.94,0.01 12.56,5.63 12.57,12.57l0 168.41c-0.01,6.94 -5.63,12.57 -12.57,12.57l0 0zm-666.33 -201.09c-4.16,0 -7.54,3.38 -7.54,7.54l0 168.41c0,4.16 3.38,7.54 7.54,7.54l678.9 0c4.17,0 7.54,-3.38 7.55,-7.54l-0.01 -155.83c0,-4.17 -3.37,-7.55 -7.54,-7.55l-678.9 -12.57z"/>
   <path class="fil2" d="M759.1 1131.49c0,-28.29 -22.93,-51.21 -51.22,-51.21 -28.28,0 -51.21,22.92 -51.21,51.21 0,28.28 22.93,51.21 51.21,51.21 28.29,0 51.22,-22.93 51.22,-51.21z"/>
   <path class="fil2" d="M826.16 1097.35c0,-0.01 -0.01,-0.01 -0.01,-0.01 -4.72,0 -8.54,3.83 -8.54,8.54 0,4.71 3.82,8.54 8.54,8.54 0,0 0.01,0 0.01,0l402.39 0c4.71,0 8.53,-3.83 8.53,-8.54 0,-4.71 -3.82,-8.54 -8.53,-8.54l-402.39 0.01z"/>
   <path class="fil2" d="M826.16 1148.56c0,0 -0.01,0 -0.01,0 -4.72,0 -8.54,3.82 -8.54,8.53 0,4.72 3.82,8.54 8.54,8.54 0,0 0.01,0 0.01,0l173.15 0c4.71,0 8.54,-3.82 8.54,-8.54 0,-4.71 -3.83,-8.53 -8.54,-8.53l-173.15 0z"/>
   <path class="fil1" d="M2177.05 634.73l301.73 0c6.94,0.01 12.57,5.63 12.57,12.57l0 314.25c0,6.94 -5.63,12.56 -12.57,12.57l-301.73 0c-6.94,-0.01 -12.57,-5.63 -12.58,-12.57l0 -314.25c0.01,-6.94 5.64,-12.56 12.58,-12.57l0 0zm301.73 334.36c4.17,0 7.54,-3.38 7.55,-7.54l0 -314.25c-0.01,-4.16 -3.39,-7.54 -7.55,-7.54l-301.73 0c-4.17,0 -7.54,3.38 -7.55,7.54l0 314.25c0.01,4.16 3.38,7.54 7.55,7.54l301.73 0z"/>
   <path class="fil2" d="M2414.49 909.32c4.71,0 8.53,-3.83 8.53,-8.54 0,-4.71 -3.82,-8.54 -8.53,-8.54l-173.15 0.01c-4.71,-0.01 -8.54,3.82 -8.54,8.53 0,4.71 3.83,8.54 8.54,8.54l173.15 0z"/>
   <path class="fil2" d="M2414.49 859.03c0,0 0.01,0 0.01,0 4.72,0 8.54,-3.82 8.54,-8.54 0,-4.71 -3.82,-8.53 -8.54,-8.53 0,0 -0.01,0 -0.01,0l-173.15 0c0,0 -0.01,0 -0.01,0 -4.72,0 -8.54,3.82 -8.54,8.53 0,4.72 3.82,8.54 8.54,8.54 0,0 0.01,0 0.01,0l173.15 0z"/>
   <path class="fil2" d="M2327.91 699.53c29.67,0 53.73,24.06 53.73,53.73 0,29.67 -24.06,53.73 -53.73,53.73 -29.66,0 -53.72,-24.06 -53.72,-53.73 0.02,-29.65 24.07,-53.7 53.72,-53.73l0 0z"/>
  </g>
 </g>
</svg>
