<?xml version="1.0"?><svg version="1.2" baseProfile="tiny-ps" viewBox="0 0 300 300" xmlns="http://www.w3.org/2000/svg" xmlns:xlink="http://www.w3.org/1999/xlink"><title>keyboard</title><g><g fill="#d6dbdc" transform="matrix(.1 0 0 -.1 0 300)"><path d="M0 1500V0h3000v3000H0V1500z"/></g><g fill="#90aeb2" transform="matrix(.1 0 0 -.1 0 300)"><path d="M0 1782V804l258-71c141-40 476-133 745-208l487-136 10 6c5 3 262 328 570 721l560 714v18c0 9-20 75-44 147l-44 129-363 92c-200 50-768 193-1261 318-494 124-902 226-908 226H0v-978zm1900 81 145-38-1-16c-1-8-34-60-75-115s-110-153-154-218l-80-117-13 19-13 19-151 39-150 39-5 13-5 13 59 72c33 40 68 85 78 101l19 28-18 14-18 13 8 13c20 32 127 159 141 166l16 9 36-8c20-5 101-26 181-46zm100-713c0-5-5-10-11-10h-10l6 10c3 6 8 10 11 10 2 0 4-4 4-10zm-125-160 6-10h-10c-6 0-11 5-11 10 0 6 2 10 4 10 3 0 8-4 11-10zm-202 886v-24l46-12c25-7 54-13 63-15l18-4 5 10c4 5 15 9 26 9 10 0 19 4 19 8v9h-32c-18 0-54 6-80 13l-48 12v9c0 5-4 9-9 9h-8v-24z"/></g><g fill="#788c9d" transform="matrix(.1 0 0 -.1 0 300)"><path d="m2 1784 3-976 730-204c402-112 739-204 750-204h21l58 77c32 43 46 65 32 50s-26-24-26-20c-1 4-10-3-20-16-22-26-24-24-10 13l9 26-6 15-6 16-14-5c-8-4-19-4-23-1l-9 6 5 14 6 15 19-10 18-10 11 20 11 21 10-7 11-6-6-22-5-21 17 22 17 22 12-14 12-13-7-8-7-7 11 6c7 4 82 97 169 207l156 200-7 12-7 11 11-6 10-7 52 67c29 38 47 62 39 55-7-6-17-12-22-12h-9l6 31 6 30-23-7c-28-8-35-16-21-21l12-4-5-22-5-22 11 15 11 15v-45h-10c-5 0-10-6-10-13 0-15-36-48-44-40-3 3-8-2-12-11l-6-17-18 6-17 5-13-15-12-15h23l-6-10-6-10 16 7 17 6-14 8-13 9h47l-15-22-15-23-12 3-11 2 5-9 6-10-9-5-9-6-6 16c-3 9-4 20 0 25l5 9-20 26-21 27 16 11 16 12-4 19-3 20 21 9 21 9 13 31 13 30 8-20 8-19v18l1 18 12-7 11-7-5 20-6 21 19 28c10 15 16 31 14 35-5 7 57 79 68 79 4 0 7-8 7-17v-17l12 12c7 7 19 12 28 12h16l1 19 2 20-15-6-14-5v19c0 25 8 33 26 26l14-5v-36l15-6 15-5-2-36c-2-19-6-35-9-35-4 0-12-13-19-30l-12-30h-31l6-6 6-7-21-31-21-31 16 15c8 8 135 168 281 355l266 340v66l-17 32c-9 17-19 43-24 57l-7 25-1-21c-1-12-7-27-15-33l-13-11 10 40 11 39-7 7-6 6-16-16c-21-20-35-21-35-1v15h31l-6 10-6 10h40l-5 28c-3 15-11 32-20 38-8 6-249 70-537 142-287 73-852 215-1256 317C338 2677 6 2760 4 2760s-3-439-2-976zm201 691c-5-16-33-21-33-7 0 13 22 32 31 26l8-5-6-14zm320-15c-10-11-19-20-21-20-1 0 2 9 8 20s15 20 20 20h10l-17-20zm-23-49c0-12-29-35-36-28-4 3-4 13-1 22l6 15h16c8 0 15-4 15-9zm316-29-18-17 13 22c7 12 15 20 18 17 3-2-3-12-13-22zm-24-47c0-6-7-14-16-20l-15-9-7 7-7 7 13 15c14 16 31 16 32 0zm-582-76c-7-11-14-18-17-15s0 12 7 21c18 21 23 19 10-6zm1230-19c0-5-7-10-15-10s-15 5-15 10c0 6 7 10 15 10s15-4 15-10zm-920-60c0-12-28-25-36-17-9 9 6 27 22 27 8 0 14-5 14-10zm862-5c0-5-5-11-11-13l-11-4v34l11-4c6-2 11-8 11-13zm-569-61c3-3 3-12 0-20l-5-14h-19c-22 0-24 11-7 28 13 13 22 15 31 6zm1009-4 3-9 100-26c120-31 129-34 124-40-4-3-218 47-257 60l-13 5 6 10c8 13 32 13 37 0zm-727-90c-10-11-20-18-23-15s3 14 13 25 20 18 23 15-3-14-13-25zM60 1970c-6-11-16-20-22-20H27l18 20c10 11 20 20 22 20s-1-9-7-20zm980-15c-13-14-26-23-28-20-7 7 29 45 41 45h10l-23-25zm358-7c-8-12-21-24-28-26l-13-5 19 26c10 15 23 27 28 27h8l-14-22zm-1035-64-5-13-13 6-14 5 12 18 11 19 7-11c4-6 5-17 2-24zm1486-4c88-22 170-44 184-49l24-9 7-18 7-17-9-6c-5-3-21-26-36-51s-37-59-49-75c-214-296-217-301-217-342v-29l-16-22c-20-29-36-28-74 4l-31 27-122 32-122 32-3 69-2 69 64 80 65 80 1 44v43l71 89 71 89h14c8 0 86-18 173-40zm-509-5c-13-14-26-23-28-20-7 7 29 45 41 45h10l-23-25zm1198-7 3-16-18-17-17-18-9 21-9 20 13 16c17 18 33 15 37-6zm-1890-48c-7-10-14-18-15-16-6 6 9 36 18 36h9l-12-20zm1857-30-6-20h8c5 0 13 4 19 9 5 4 23 11 39 15l30 6-17-10c-10-6-20-11-23-10-3 0-14-9-26-21l-20-20-12 4-12 4v24c0 13 5 27 10 31 15 12 17 10 10-12zm-1245-110c0-5-4-10-10-10-5 0-10 5-10 10 0 6 5 10 10 10 6 0 10-4 10-10zM50 1666c0-2-7-6-15-9l-14-6-6 9-6 10h20c12 0 21-2 21-4zm2396-43c-10-10-19 5-10 18l8 13 4-13c2-7 1-15-2-18zm-1246-13c0-5-5-10-11-10h-10l6 10c3 6 8 10 11 10 2 0 4-4 4-10zm-867-25c0-6-7-11-16-13l-17-3 6 16c7 17 25 17 27 0zm307-68c0-7-10-18-21-26l-22-13 7 17c3 9 6 21 6 26s7 9 15 9h15v-13zm-65-67c-3-5-11-10-16-10h-10l6 10c3 6 11 10 16 10h10l-6-10zm357-11c2-5 10-11 18-12 8-2 20-6 27-10l12-7 6 9 5 10 30-11 30-10-6-9-5-9-10 5-9 6-6-15-6-16-21 12c-12 6-24 11-27 11-3-1-4 4-2 10l3 10-13-10-13-11-15 7-15 6-2 23-3 22h9c5 0 11-5 13-11zm-876-78c5-6 46-19 91-31l83-21 9 6 10 5 5-8 5-9-23-12-22-12-60 19c-32 11-74 23-91 27l-33 7v19c0 21 10 25 26 10zm390-106c9-8 24-16 35-16 28-2 32-3 48-13l14-9-8 14-8 14 19-16 19-16 13 4 12 5v-16c0-8-4-18-10-21l-10-6v8c0 4-12 9-27 9-44 2-100 11-111 18-9 5-14 56-5 56 2 0 11-7 19-15zm174-45c0-5-4-10-10-10-5 0-10 5-10 10 0 6 5 10 10 10 6 0 10-4 10-10zm210-79c0-5-5-13-12-17l-11-7 7 19 7 19-12-12-11-11-15 5-14 5 17 19 16 18 14-14c8-7 14-18 14-24zm410-97c19-4 39-7 44-6 4 2 15-3 23-9l14-12 34 1c42 2 44-5 8-20-34-14-53-11-71 10-7 10-11 11-7 5l6-13h-43l6 16 6 17-12-10c-7-5-20-9-28-8s-22 3-31 3l-17 2-4 25c-6 31 1 39 21 21 9-8 32-17 51-22zm555-45 7-10 14 5 14 5 1-12c1-7 2-27 3-45l1-33-18-17-18-16 7 17 6 17h-13c-8 0-20-4-28-9l-14-9 7-41 6-40-20-11-20-11-1 23-1 23-5-17-4-18-14 13c-7 6-11 15-8 20 6 10-5 9-28-4l-20-10 3 18c2 10 7 21 12 25l9 6 18-11 17-11 16 13c8 7 14 16 13 20-3 10 40 61 52 61h11v40h-39l5 15c7 18 20 19 29 4zm-5-144c0-8-4-15-10-15-5 0-10 7-10 15s5 15 10 15c6 0 10-7 10-15zm-190-120-12-15-9 6-9 5 5 10c4 5 13 9 22 9h15l-12-15zm-11-26 21 12v-26c0-15-5-36-11-47l-11-20 12 7 13 8-5-13c-2-8-10-16-16-18l-12-4-6 31-6 31-9-5c-4-3-6-11-3-18l4-13-12-17-13-18-19 14-20 14 29 46 29 46 7-11 6-10 22 11zm42-92-12-12 7 18c3 10 9 15 12 12s0-11-7-18zm-148-137 5-20-9 6c-5 3-9 12-9 20 0 20 7 17 13-6zM765 2330l-6-10h10c6 0 11 5 11 10 0 6-2 10-4 10-3 0-8-4-11-10zm941-472 5-8 10 5c13 9 11 12-6 12h-14l5-9zm50-11c3-10 9-15 12-12s0 11-7 18l-12 12 7-18zm330-581c1-12 3-24 3-28 2-18 19-6 23 16l5 24-17 5-16 4 2-21zm-64-56v-25l5 13c2 6 2 18 0 25l-5 12v-25zm58-1v-10l10 6c6 3 10 8 10 11 0 2-4 4-10 4-5 0-10-5-10-11zm-140-143v-19l20 18c11 10 20 19 20 21 0 1-9 2-20 1l-20-1v-20z"/></g><g fill="#666e73" transform="matrix(.1 0 0 -.1 0 300)"><path d="M0 2706v-54l70-17c39-9 70-20 70-24 0-12-120-151-131-151H-1l3-57 3-57 35-9c19-5 37-10 39-12s-15-26-38-53l-41-48v-257l24 28 24 28 91-23c50-12 93-25 95-29 3-4-23-39-56-79l-60-72H92c-15 0-42 4-60 9l-32 10v-149l20 12 20 13 87-23c47-12 88-24 91-27 6-6-106-143-126-154l-15-9-31 9c-17 5-34 9-38 9H0v-160h10c6 0 10 4 10 10 0 5 8 14 19 19l18 10 117-31 116-31v-9c0-15-121-158-134-158-6 0-43 9-81 20s-71 20-72 20c-2 0-3-89-3-199V813l82-23c46-12 119-33 163-46 81-23 665-186 828-230 48-13 150-41 225-63 75-21 152-42 170-46l32-7v31l-26 20-27 21h28l-15 10-15 9-2 41-1 40 9-6 9-5 7 18c4 10 33 55 65 100l59 83h29v-88l20 5c11 3 23 10 27 16l6 10-14-7c-8-4-5 0 5 8l20 16 8-13 8-12v15l1 15 14-19c13-18 20-15 16 7 0 4 5 6 11 5l13-3-1 17-2 18 8-5c4-2 21 13 39 35l32 40h-20l6 16 6 16 7-12 7-12 22 28c21 27 22 42 2 29-6-3-11-13-11-21v-15l-11 6-11 7-19-20-19-21 11-6 10-7-17-19-17-19h-18c-10 0-21-6-25-12l-8-13-6 25-6 25h-12c-7 0-17 7-23 15l-11 15 5-21c2-12 1-28-4-35l-8-13 16-11 16-12-12-7-11-7-15 15c-17 17-20 36-4 36h10l-8 12c-12 20-13 40-2 60l10 18h30l-2 12c-2 14 11 50 21 58 3 3 21 28 40 55 18 28 40 54 47 58s20 22 29 40 26 44 38 58c12 15 29 39 38 55 10 16 36 54 58 84 23 30 51 70 62 88l20 33 14-12 13-11 11 7 11 7-16 12-16 12 35 49c20 28 53 75 73 105 37 56 84 121 126 173 12 16 29 41 37 55 9 15 28 41 44 57 15 17 35 44 45 61 31 58 92 144 102 144h10l-5 9-6 9 12 5 13 4-11 19-10 18-1235 311C610 2606 43 2750 28 2753l-28 7v-54zm353-141 77-19v-9c0-4-26-40-57-78l-57-69h-15c-9 0-49 9-90 20-41 10-78 17-83 14l-8-5v10c0 6 30 45 66 86l66 76 12-4c6-2 46-12 89-22zm295-74c41-11 76-21 78-24 5-5-103-139-120-149l-12-7-78 20-79 20-13-5-14-5v9c0 5 27 43 61 84l61 76h21c12 0 55-9 95-19zm287-72 85-21v-9c0-5-26-41-57-79l-57-70h-17c-9 0-52 9-95 20l-78 19-8-12-8-12v12c0 20 126 173 142 173 5 0 47-10 93-21zm-818-51-5-13-1 19c-1 11 2 17 5 13 3-3 4-12 1-19zm1121-27c41-11 76-22 79-25 6-5-85-123-111-145l-15-13-91 24c-49 12-90 26-90 31 0 4 25 39 56 78l56 69h22c11 0 54-9 94-19zm-953-67c39-9 73-20 78-24l7-6-65-77c-36-42-67-77-68-77s-34 9-72 20-80 20-92 20c-13 0-23 4-23 8 0 5 30 44 66 86l65 77 17-5c9-3 49-13 87-22zm122 4-5-13-1 19c-1 11 2 17 5 13 3-3 4-12 1-19zm1141-15 72-17v-8c0-13-109-146-123-151-7-2-51 6-99 19l-87 22-7-7c-26-24 29 56 74 107l55 64 21-6c12-3 54-13 94-23zm-968-64c41-11 77-22 79-24 6-6-111-146-126-152-7-3-54 5-103 17l-90 22 7 12c3 6 32 41 62 78l56 68h20c11 0 54-9 95-21zm1404-45c121-31 225-60 230-64l9-9-58-85-58-86-11 9c-6 5-110 34-231 65-121 32-228 60-238 62l-18 6 5 14c3 9 29 44 58 79l53 64h19c10 1 118-24 240-55zm-1131-25c45-11 86-24 91-29l9-9-41-53c-23-30-52-64-65-76l-24-23-91 23-92 22v9c0 9 121 157 128 157 2 0 40-9 85-21zm312-80c47-12 85-25 85-29 0-11-106-142-122-151l-13-7-89 23c-49 14-90 26-92 27-1 2 25 38 58 81l61 77h14c8 0 52-10 98-21zm303-78c41-11 76-22 80-25 3-3-8-23-24-44-17-20-43-54-60-74l-29-38h-24c-23 0-171 38-180 46-2 1 18 30 44 63l47 60-7 10-6 11 14-6 15-5 7 10c9 16 40 13 123-8zm-1019-52c42-12 78-23 80-25 2-1-25-37-59-78l-63-76h-16c-9 0-53 10-99 21l-83 22 3 8c2 4 29 40 61 79l58 70h21c12 0 56-9 97-21zm1431-43 165-43 27-38 28-37-58-82c-31-44-114-162-185-261l-128-180-22 3c-12 2-27 8-34 14l-12 10-10-6c-6-4-33-42-62-86-28-44-56-80-62-80-5 0-15 7-21 16l-12 16-350 94c-192 52-350 94-351 94-20 1 94 153 122 163l13 6 223-59c122-33 226-57 230-54l9 5v130l66 82 66 82-5 36-5 36 54 69 55 68-6 14-5 14 14-5 15-6 11 15 12 14h27c14-1 100-20 191-44zm-1156-28c44-12 85-25 90-29l9-8-51-64c-28-35-58-70-66-76l-15-13-96 23c-52 13-95 25-95 28 0 9 130 161 137 161 3 0 42-10 87-22zm299-79c45-11 85-24 89-27l7-7-55-70c-31-39-59-74-64-79l-8-8-96 23-96 23v9c0 13 120 157 131 157 6 0 47-9 92-21zm306-79c40-10 77-22 82-27l7-8-56-72c-31-40-64-75-72-77l-15-6-85 23-85 23v13c0 6 25 43 55 81l55 69h20c11 1 53-8 94-19zm-856-91 37-10v-10c0-11-93-127-116-145l-15-12-87 24c-48 13-91 25-96 27l-9 3 58 70c32 38 64 74 72 81l15 11 51-14c29-8 69-19 90-25zm285-75 52-15v-9c0-10-94-128-117-147l-14-11-92 25c-51 14-94 26-95 28-6 5 108 144 126 154l15 9 36-10c20-5 60-16 89-24zm-210-257c62-18 113-36 114-40 0-5-26-42-59-83l-58-74h-19c-10 0-49 9-85 19-36 11-85 25-108 31l-43 11v9c0 10 106 139 124 152 14 10 5 12 134-25zm387-105 100-27v-12c0-7-25-44-55-83l-55-70h-23c-25 0-207 47-230 59l-13 7 61 77 62 77h26c15-1 72-13 127-28zm374-101 104-29 20-20 20-20-58-89c-32-48-60-90-63-93-2-3-14 7-25 22l-22 26-123 34-122 33 3 8c1 4 29 41 62 82l60 75h20c11 0 67-13 124-29zm1251 869c0-10 5-22 10-25 6-3 10-4 10-1 0 2 3 11 6 19l5 14-15 6-16 6v-19zm-110-40c0-5 5-10 10-10 6 0 10 5 10 10 0 6-4 10-10 10-5 0-10-4-10-10zm-59-58c-14-26-7-42 10-25l11 11-4 18-4 19-13-23zm124-22c3-5 15-10 26-10h20l-6 10c-3 6-15 10-26 10h-20l6-10zm-198-46c-8-8 3-34 14-34 5 0 9 9 9 20 0 19-11 26-23 14zm73-5v-10l10 6c6 3 10 8 10 11 0 2-4 4-10 4-5 0-10-5-10-11zm-120-74c0-8 2-15 4-15s6 7 10 15l5 15h-9c-6 0-10-7-10-15zm70-25-15-10h12c6 0 15 5 18 10 8 12 4 12-15 0zm-68-27 10-13-16-6-16-6v-17l1-16 15 20c9 11 19 27 24 35l8 16h-37l11-13zm-52-110 1-28 14 19c19 25 19 36 0 36h-15v-27zm-46-28-6-15-11 7-10 6 7-11 7-11 14 6c8 3 15 11 15 19 0 18-9 18-16-1zm69-31-22-27 6-10 6-9 7 13 8 12 17-16 17-17 9 5c5 4 9 9 9 12 0 4-3 3-7-1l-7-7-11 36-10 37-22-28zm-73-131v-28l9 14c5 8 7 20 4 28-8 21-13 15-13-14zm-284-191-6-11 11-6c14-9 20-2 10 14l-8 13-7-10zm64-153v-10l10 6c6 3 10 8 10 11 0 2-4 4-10 4-5 0-10-5-10-11zm-180-109c0-5 5-10 10-10 6 0 10 5 10 10 0 6-4 10-10 10-5 0-10-4-10-10zm-251-447-14-18 18 14c16 13 21 21 13 21-2 0-10-8-17-17z"/></g><g fill="#384c60" transform="matrix(.1 0 0 -.1 0 300)"><path d="m2 2707 3-51 35-9c19-4 51-12 70-17l35-9 12-20 13-20-14 5-13 5-58-65-57-66H0v-109l36-7 36-7 5-13 5-13-41-49-41-48v-237l23 21 23 22h19c10 0 54-9 97-21l78-21v-10c0-5-28-43-61-85l-62-75-36 6c-20 3-46 9-59 12l-22 6v-133l18 10 17 9 88-20 89-21 5-13 5-13-63-76-63-76-34 6c-18 3-40 9-48 12l-14 5v-152h9c5 0 14 7 21 15s20 15 30 15c24 0 221-57 231-67l8-8-57-72-57-72-22-7-21-6-71 20-71 19V941l58-11c31-6 66-15 77-21 11-5 54-18 95-28 41-11 101-26 133-35 134-37 175-48 232-62 33-8 68-19 77-25 10-5 24-9 32-9 7 0 36-7 62-15 27-8 171-49 319-90 149-41 285-79 303-84l34-10 16 10c10 6 49 56 87 111 93 133 140 199 202 289 29 41 77 108 105 149 29 41 118 167 198 280s152 215 160 227c8 11 51 72 95 133 121 171 163 230 201 288l35 53-3 16-3 17-410 103c-225 56-792 199-1258 317L-1 2758l3-51zm347-137 74-19 21-21 21-21-16 6-17 6-58-70c-32-39-63-71-68-71-6 0-45 9-86 20s-78 20-82 20c-3 0-9-23-13-51-9-62-20-56-16 9 3 58 16 82 81 155l52 57h16c9 0 50-9 91-20zm301-76 65-17 20-18 19-19h-33l-48-60-48-59-20-6-20-6-81 19-81 19-10-56-10-56-2 52c-2 70 7 87 79 166l63 69 21-6c12-4 50-14 86-22zm288-73c40-11 79-24 86-30l13-11-36-38c-20-20-51-54-69-75-18-20-36-37-40-37s-41 9-82 20-81 20-87 20h-13l-1-32c-1-18-5-44-10-58l-9-25 6 65 5 65 16 25c9 14 39 49 66 78l50 52h16c9 0 49-9 89-19zm286-72c45-11 88-24 95-29l13-8-62-76-63-76h-26c-14 0-58 9-97 19l-72 18-9-51-10-51-2 35c0 19 4 51 9 70l10 35 61 68c33 37 63 67 65 67 3 0 42-9 88-21zm-961-63c29-8 64-17 80-20l27-6v-13c0-6-28-45-61-84l-61-73h-16c-9 0-51 9-92 20-41 10-76 17-78 16-2-2-7-26-12-53l-8-48-1 50-1 50 15 28c8 15 37 54 66 87l52 60h19c11 0 43-6 71-14zm1274-17c43-12 81-24 85-28l7-6-61-78-61-77h-14c-8 0-51 9-95 21-44 11-82 19-84 17-1-2-7-26-12-53l-10-50v40c0 22 3 52 7 67l6 27 58 71 58 70h19c11 0 55-9 97-21zm-950-66 73-18v-13c0-13-116-162-126-162-3 0-43 10-90 21l-86 22-9-14c-5-8-9-30-9-50v-37l91-23 91-24 5-12 5-12-56-68c-31-37-62-71-69-75l-13-7-75 19c-41 11-82 20-91 20h-17l-4-22-4-23-2 32-1 31 27 34c15 18 44 52 65 75l38 43 1 47c0 27 5 63 12 80l12 33 59 66 59 66 20-6c11-3 54-13 94-23zm1640-120 5-13-52-80c-29-43-58-84-66-91l-14-11-6 15-6 16-31 10c-52 16-424 111-436 111h-11l-1-27c-1-16-5-39-10-53l-8-25 5 60 6 60 25 38c15 21 45 57 67 82l41 44 244-61 243-62 5-13zm-1351 45 84-22v-9c0-5-27-42-61-83l-60-74h-22c-12 0-56 9-97 20-41 10-75 18-76 17-2-1-6-25-9-52l-7-50 94-23c51-13 97-27 101-31l8-8-51-64c-28-35-60-72-71-81l-19-16-88 23c-48 13-90 21-94 18l-8-4v36l59 66 58 67 7 70 7 69 56 69c81 98 67 94 189 62zm371-102 13-11-61-75c-34-41-67-76-74-78s-49 6-94 18l-82 21-9-6-10-6v37l60 71c33 39 65 73 72 75 17 6 170-32 185-46zm-227 24c0-5-2-10-4-10-3 0-8 5-11 10l-6 10h10c6 0 11-4 11-10zm438-71c48-12 91-25 95-29l8-7-61-77c-34-42-67-79-74-82s-46 4-87 16c-40 11-82 20-91 20h-18l-1-32-2-33-4 24c-7 37 4 64 48 120l41 51-6 15-5 15h19c10 0 22 5 25 10 8 14 13 13 113-11zm547-134 50-15 23-35 23-36-7-12c-4-7-88-126-187-265l-179-253-22 7c-11 4-27 7-35 8l-14 1-54-75c-30-41-58-82-63-90l-10-15-15 19c-8 10-16 22-17 27-2 4-162 50-357 103-194 52-356 98-359 100-6 7 106 145 129 159l15 9 225-59 224-60 7 36c4 20 7 52 7 72l1 36 62 73 62 74-3 42-2 42 55 68 55 68-11 13-10 13h18c11 1 30 7 43 14l24 13 136-34c75-19 159-40 186-48zm-1078-12-5-18v70l5-17c2-10 2-26 0-35zm115-64 78-21v-12c0-6-27-44-60-83l-60-73h-20c-11 0-54 9-96 21l-77 21-8-14-9-13v44l63 75 62 75h24c14 1 60-8 103-20zm282-74c49-13 89-26 90-27 1-2 8-11 15-21l14-17-14 5-15 5-57-70-58-70h-17c-9 0-56 10-104 22l-88 23v9c0 13 124 165 135 165 6 1 50-10 99-24zm-907-76c48-11 92-24 97-29l9-9-51-63c-27-35-59-71-69-81l-20-17-96 22-97 23v9c0 15 123 166 135 166 2 0 43-9 92-21zm261-70c68-16 142-40 142-46 0-8-95-125-118-147l-21-18-92 24-93 24-3 11-4 11 57 69c52 61 73 82 82 83 2 0 24-5 50-11zm-131-279c59-17 111-34 116-39l9-9-62-76-63-76h-24c-13 0-65 12-116 26-50 14-100 26-109 27-10 1-18 4-18 7 0 10 32 53 83 113l49 57h14c8 0 62-14 121-30zm372-101c64-17 120-34 124-38l8-8-67-82-66-83-17 4c-9 3-67 18-128 34l-113 29v11c0 12 127 164 137 164 3 0 58-14 122-31zm399-108 102-28 21-19 20-18-4-16c-6-23-117-180-127-180-5 0-18 13-29 28l-20 29-120 32-121 33v12c0 6 28 44 61 84l61 72h26c15-1 73-13 130-29zm125-466c-3-9-8-14-10-11-3 3-2 9 2 15 9 16 15 13 8-4z"/></g><g fill="#181d22" transform="matrix(.1 0 0 -.1 0 300)"><path d="M0 2705v-44l38-10c20-5 51-13 67-17l30-7 37-35 37-36 19 17c23 21 40 21 131-3l74-19 33-32 34-32 20 18 21 19 93-23 93-22 33-34 33-34 26 19 26 19 89-24 89-24 33-32 34-32 18 16c24 22 36 21 129-4l78-21 37-35 37-36 25 21 26 20 91-23 91-23 34-38 33-38 25 23 25 23 237-60 237-61 38-37 38-37-75-111c-42-61-84-118-94-127-10-8-19-23-21-32-2-10-85-132-184-272l-180-254-13-1c-6 0-11-3-10-7 3-9-154-233-162-232-3 0-19 28-36 62l-31 61-24 7c-132 37-663 178-664 176-2-1-6-23-9-49l-7-48h29c17 0 74-12 128-26l99-25 35-32c19-18 40-39 46-47l12-15 20 25 20 25 114-29c133-33 151-42 202-94l39-40-84-117-83-117-13 18c-7 10-13 21-13 25 0 8-40 73-59 95-5 6-55 24-111 39l-103 28-13-18c-8-10-14-26-14-35 0-19-30-50-48-50h-11l-34 73-34 73-100 27c-55 15-107 29-116 33l-15 5-17-45c-10-25-23-50-30-56l-12-10-15 5-15 6-28 69-27 68-111 31-111 30-12-10c-7-6-16-23-19-39-3-15-14-35-24-44l-17-16-16 13c-8 6-25 39-38 72s-24 61-25 63c-2 3-141 42-150 42-3 0-5-56-5-125V950h8c4 0 45-11 92-24s186-51 310-85c379-105 763-211 810-225 25-8 80-24 122-35l76-22 19 11c16 11 108 140 526 739 195 278 302 432 383 546 126 177 178 255 173 259-8 7-157 46-1074 276-506 127-1033 260-1172 296-138 35-256 64-262 64H0v-45zM1448 598c-2-6-10-14-16-16l-12-4 6 16c3 9 11 16 16 16h10l-4-12zM970 2089v-10l10 6c6 3 10 8 10 11 0 2-4 4-10 4-5 0-10-5-10-11zm-959-73-12-14 11-7 10-6 6 16c9 22-1 29-15 11zm1264 3c-4-6-5-12-2-15 2-3 7 2 10 11 7 17 1 20-8 4zm-975-79-14-9 7-7 7-8 12 12c15 15 7 24-12 12zm1270 0c0-5 5-10 10-10 6 0 10 5 10 10 0 6-4 10-10 10-5 0-10-4-10-10zm-974-76-20-14 7-7 7-7 17 17c22 21 14 30-11 11zm-522-63c3-4 10-21 16-36s13-25 16-22c6 6-23 67-32 67-3 0-3-4 0-9zm813-15-18-14 12-7 11-8 9 14c8 13 12 29 7 29-2 0-11-7-21-14zm-547-60c8-10 15-27 17-38s7-26 11-34l7-13 14 8 14 9-7 36-7 36h-14c-7 0-22 3-32 7l-18 7 15-18zm847-14-18-20 9-6 10-6 12 15c6 8 10 19 8 25l-4 12-17-20zm-576-63 10-20 9 6 9 6-4-21-4-20 18-10 18-9 7 6 6 6v-16c0-16 17-33 26-25 2 3-3 25-12 50l-15 46-39 10-39 10 10-19zm279-68c0-6 4-11 8-11 10 0 33-60 27-70-4-7 74-35 80-28 1 2-4 24-12 50l-14 48-27 6c-15 3-35 8-44 11l-18 4v-10zm296-86c4-8 10-15 15-15s9-9 9-19v-19l45-25 45-26v12c0 7-5 29-10 49l-11 37-37 11c-20 5-42 10-49 10h-12l5-15zm-980-61c-3-9-6-26-6-39v-22l43-13 44-12 45-44 46-44 16 25 17 26-17 53-17 53-71 17c-87 20-92 20-100 0zm290-77c-3-12-6-32-6-44v-22l43-11c23-6 60-16 82-22l40-11 27-25c15-14 29-24 31-21 2 2-5 33-17 68l-21 64-60 17c-33 9-72 20-86 23l-27 7-6-23zm249-170-18-14 16-6 15-6 6 16c9 22 3 25-19 10z"/></g></g></svg>