<svg xmlns="http://www.w3.org/2000/svg" version="1.1" xmlns:xlink="http://www.w3.org/1999/xlink" xmlns:svgjs="http://svgjs.dev/svgjs" width="1500" height="1500" viewBox="0 0 1500 1500"><rect width="1500" height="1500" fill="#000000"></rect><g transform="matrix(0.6666666666666666,0,0,0.6666666666666666,249.975939849624,282.4967741935484)"><svg viewBox="0 0 266 248" data-background-color="#ffffff" preserveAspectRatio="xMidYMid meet" height="1398" width="1500" xmlns="http://www.w3.org/2000/svg" xmlns:xlink="http://www.w3.org/1999/xlink"><g id="tight-bounds" transform="matrix(1,0,0,1,0.006400000000013506,0.4000000000000057)"><svg viewBox="0 0 265.9872 247.2" height="247.2" width="265.9872"><g><svg viewBox="0 0 265.9872 247.2" height="247.2" width="265.9872"><g><svg viewBox="0 0 265.9872 247.2" height="247.2" width="265.9872"><g id="textblocktransform"><svg viewBox="0 0 265.9872 247.2" height="247.2" width="265.9872" id="textblock"><g><svg viewBox="0 0 265.9872 247.2" height="247.2" width="265.9872"><g transform="matrix(1,0,0,1,0,0)"><svg width="265.9872" viewBox="1 -37.5 40.35 37.5" height="247.2" data-palette-color="#000000"><path d="M21.75-14.8L21.75-14.8Q21.75-14.75 21.78-14.73 21.8-14.7 21.85-14.7L21.85-14.7 41.35-14.7 41.35 0 1 0Q1-3.1 1-6.2 1-9.3 1-12.43 1-15.55 1-18.65 1-21.75 1-24.85L1-24.85Q1-28 1-31.18 1-34.35 1-37.5L1-37.5 21.75-37.5Q21.75-34.65 21.75-31.83 21.75-29 21.75-26.15 21.75-23.3 21.75-20.48 21.75-17.65 21.75-14.8Z" opacity="1" transform="matrix(1,0,0,1,0,0)" fill="#ffffff" class="wordmark-text-0" data-fill-palette-color="primary" id="text-0"></path></svg></g></svg></g></svg></g></svg></g><g></g></svg></g><defs></defs></svg><rect width="265.9872" height="247.2" fill="none" stroke="none" visibility="hidden"></rect></g></svg></g></svg>