<?xml version="1.0" encoding="UTF-8"?>
<!DOCTYPE svg PUBLIC "-//W3C//DTD SVG 1.1//EN" "http://www.w3.org/Graphics/SVG/1.1/DTD/svg11.dtd">
<!-- Creator: CorelDRAW 2021 (64-Bit) -->
<svg xmlns="http://www.w3.org/2000/svg" xml:space="preserve" width="10.8795mm" height="3.1665mm" version="1.1" style="shape-rendering:geometricPrecision; text-rendering:geometricPrecision; image-rendering:optimizeQuality; fill-rule:evenodd; clip-rule:evenodd"
viewBox="0 0 93.31 27.16"
 xmlns:xlink="http://www.w3.org/1999/xlink"
 xmlns:xodm="http://www.corel.com/coreldraw/odm/2003">
 <defs>
  <style type="text/css">
   <![CDATA[
    .fil0 {fill:white;fill-rule:nonzero}
   ]]>
  </style>
 </defs>
 <g id="Layer_x0020_1">
  <metadata id="CorelCorpID_0Corel-Layer"/>
  <polygon class="fil0" points="22.8,26.87 16.59,26.87 6.21,11.15 6.21,26.87 -0,26.87 -0,1.38 6.21,1.38 16.59,17.17 16.59,1.38 22.8,1.38 "/>
  <path id="_1" class="fil0" d="M47.31 6.61l0 20.26 -6.21 0 0 -2.76c-0.63,0.9 -1.48,1.62 -2.56,2.16 -1.08,0.54 -2.27,0.82 -3.58,0.82 -1.55,0 -2.92,-0.34 -4.1,-1.03 -1.19,-0.69 -2.11,-1.69 -2.76,-3 -0.65,-1.31 -0.98,-2.84 -0.98,-4.61l0 -11.84 6.17 0 0 11c0,1.36 0.35,2.41 1.05,3.16 0.7,0.75 1.65,1.13 2.83,1.13 1.21,0 2.17,-0.37 2.87,-1.13 0.7,-0.75 1.05,-1.8 1.05,-3.16l0 -11 6.21 0z"/>
  <polygon id="_2" class="fil0" points="64.15,26.87 57.98,18.37 57.98,26.87 51.77,26.87 51.77,0 57.98,0 57.98,14.85 64.12,6.61 71.78,6.61 63.36,16.77 71.85,26.87 "/>
  <path id="_3" class="fil0" d="M93.31 16.41c0,0.58 -0.04,1.19 -0.11,1.82l-14.05 0c0.1,1.26 0.5,2.22 1.22,2.89 0.71,0.67 1.59,1 2.63,1 1.55,0 2.63,-0.65 3.23,-1.96l6.61 0c-0.34,1.33 -0.95,2.53 -1.83,3.59 -0.88,1.07 -1.99,1.9 -3.32,2.51 -1.33,0.61 -2.82,0.91 -4.47,0.91 -1.98,0 -3.75,-0.42 -5.3,-1.27 -1.55,-0.85 -2.76,-2.06 -3.63,-3.63 -0.87,-1.57 -1.31,-3.41 -1.31,-5.52 0,-2.11 0.43,-3.95 1.29,-5.52 0.86,-1.57 2.06,-2.78 3.61,-3.63 1.55,-0.85 3.33,-1.27 5.34,-1.27 1.96,0 3.7,0.41 5.23,1.23 1.52,0.82 2.72,2 3.58,3.52 0.86,1.52 1.29,3.3 1.29,5.34zm-6.35 -1.63c0,-1.07 -0.36,-1.91 -1.09,-2.54 -0.73,-0.63 -1.63,-0.94 -2.72,-0.94 -1.04,0 -1.92,0.3 -2.63,0.91 -0.71,0.61 -1.16,1.46 -1.33,2.58l7.77 0z"/>
 </g>
</svg>
