<?xml version="1.0" encoding="UTF-8"?>
<!DOCTYPE svg PUBLIC "-//W3C//DTD SVG 1.1//EN" "http://www.w3.org/Graphics/SVG/1.1/DTD/svg11.dtd">
<!-- Creator: CorelDRAW 2021 (64-Bit) -->
<svg xmlns="http://www.w3.org/2000/svg" xml:space="preserve" width="16.118mm" height="16.118mm" version="1.1" style="shape-rendering:geometricPrecision; text-rendering:geometricPrecision; image-rendering:optimizeQuality; fill-rule:evenodd; clip-rule:evenodd"
viewBox="0 0 131.58 131.58"
 xmlns:xlink="http://www.w3.org/1999/xlink"
 xmlns:xodm="http://www.corel.com/coreldraw/odm/2003">
 <defs>
  <style type="text/css">
   <![CDATA[
    .fil1 {fill:none}
    .fil0 {fill:#999999}
   ]]>
  </style>
   <clipPath id="id0">
    <path d="M65.79 0c36.33,0 65.79,29.45 65.79,65.79 0,36.33 -29.45,65.79 -65.79,65.79 -36.33,0 -65.79,-29.45 -65.79,-65.79 0,-36.33 29.45,-65.79 65.79,-65.79z"/>
   </clipPath>
    <clipPath id="id1">
     <path d="M65.79 0c36.33,0 65.79,29.45 65.79,65.79 0,36.33 -29.45,65.79 -65.79,65.79 -36.33,0 -65.79,-29.45 -65.79,-65.79 0,-36.33 29.45,-65.79 65.79,-65.79z"/>
    </clipPath>
    <clipPath id="id2">
     <path d="M65.79 0c36.33,0 65.79,29.45 65.79,65.79 0,36.33 -29.45,65.79 -65.79,65.79 -36.33,0 -65.79,-29.45 -65.79,-65.79 0,-36.33 29.45,-65.79 65.79,-65.79z"/>
    </clipPath>
 </defs>
 <g id="Layer_x0020_1">
  <metadata id="CorelCorpID_0Corel-Layer"/>
  <path class="fil0" d="M65.79 0c36.33,0 65.79,29.45 65.79,65.79 0,36.33 -29.45,65.79 -65.79,65.79 -36.33,0 -65.79,-29.45 -65.79,-65.79 0,-36.33 29.45,-65.79 65.79,-65.79z"/>
  <g style="clip-path:url(#id0)">
   <g id="_2423763783120">
   </g>
   <g style="clip-path:url(#id1)">
    <image x="-6.15" y="-6.07" width="140.79" height="140.79" xlink:href="profile_Images\profile_ImgID1.jpg"/>
   </g>
   <g style="clip-path:url(#id2)">
   </g>
  </g>
  <path class="fil1" d="M65.79 0c36.33,0 65.79,29.45 65.79,65.79 0,36.33 -29.45,65.79 -65.79,65.79 -36.33,0 -65.79,-29.45 -65.79,-65.79 0,-36.33 29.45,-65.79 65.79,-65.79z"/>
 </g>
</svg>
