<svg xmlns="http://www.w3.org/2000/svg"  viewBox="0 0 48 48" width="50px" height="50px" baseProfile="basic"><linearGradient id="YVLlkq_Pb9_zH69Xq9RjLa" x1="5.498" x2="47.943" y1="-8.047" y2="65.47" gradientUnits="userSpaceOnUse"><stop offset="0" stop-color="#262626" stop-opacity="0"/><stop offset="1" stop-color="#262626" stop-opacity=".8"/></linearGradient><path fill="url(#YVLlkq_Pb9_zH69Xq9RjLa)" d="M24,4C12.954,4,4,12.954,4,24c0,11.046,8.954,20,20,20s20-8.954,20-20	C44,12.954,35.046,4,24,4z"/><linearGradient id="YVLlkq_Pb9_zH69Xq9RjLb" x1="18.251" x2="36.868" y1="8.345" y2="40.591" gradientUnits="userSpaceOnUse"><stop offset="0" stop-color="#262626" stop-opacity="0"/><stop offset="1" stop-color="#262626" stop-opacity=".8"/></linearGradient><polygon fill="url(#YVLlkq_Pb9_zH69Xq9RjLb)" points="26,26.161 26,35.8 34,31 34,21.589"/><linearGradient id="YVLlkq_Pb9_zH69Xq9RjLc" x1="19.23" x2="33.828" y1="8.729" y2="34.014" gradientUnits="userSpaceOnUse"><stop offset="0" stop-color="#262626" stop-opacity="0"/><stop offset="1" stop-color="#262626" stop-opacity=".8"/></linearGradient><polygon fill="url(#YVLlkq_Pb9_zH69Xq9RjLc)" points="24,22.696 33.985,16.991 24,11 14.015,16.991"/><linearGradient id="YVLlkq_Pb9_zH69Xq9RjLd" x1="9.157" x2="30.18" y1="13.264" y2="49.677" gradientUnits="userSpaceOnUse"><stop offset="0" stop-color="#262626" stop-opacity="0"/><stop offset="1" stop-color="#262626" stop-opacity=".8"/></linearGradient><polygon fill="url(#YVLlkq_Pb9_zH69Xq9RjLd)" points="22,26.161 14,21.589 14,31 22,35.8"/></svg>