<?xml version="1.0" encoding="UTF-8"?>
<!DOCTYPE svg PUBLIC "-//W3C//DTD SVG 1.1//EN" "http://www.w3.org/Graphics/SVG/1.1/DTD/svg11.dtd">
<!-- Creator: CorelDRAW 2021 (64-Bit) -->
<svg xmlns="http://www.w3.org/2000/svg" xml:space="preserve" width="23.0121mm" height="3.1665mm" version="1.1" style="shape-rendering:geometricPrecision; text-rendering:geometricPrecision; image-rendering:optimizeQuality; fill-rule:evenodd; clip-rule:evenodd"
viewBox="0 0 396.57 54.57"
 xmlns:xlink="http://www.w3.org/1999/xlink"
 xmlns:xodm="http://www.corel.com/coreldraw/odm/2003">
 <defs>
  <style type="text/css">
   <![CDATA[
    .fil0 {fill:white;fill-rule:nonzero}
   ]]>
  </style>
 </defs>
 <g id="Layer_x0020_1">
  <metadata id="CorelCorpID_0Corel-Layer"/>
  <path class="fil0" d="M19.99 54.49c-3.74,0 -7.1,-0.61 -10.07,-1.82 -2.97,-1.22 -5.34,-3.02 -7.11,-5.4 -1.77,-2.38 -2.71,-5.25 -2.81,-8.61l13.28 0c0.19,1.9 0.85,3.34 1.97,4.34 1.12,1 2.58,1.5 4.38,1.5 1.85,0 3.31,-0.43 4.38,-1.28 1.07,-0.85 1.6,-2.03 1.6,-3.54 0,-1.26 -0.43,-2.31 -1.28,-3.14 -0.85,-0.83 -1.9,-1.51 -3.14,-2.04 -1.24,-0.53 -3,-1.14 -5.29,-1.82 -3.31,-1.02 -6.01,-2.04 -8.1,-3.06 -2.09,-1.02 -3.89,-2.53 -5.4,-4.52 -1.51,-1.99 -2.26,-4.6 -2.26,-7.8 0,-4.77 1.73,-8.5 5.18,-11.2 3.45,-2.7 7.95,-4.05 13.5,-4.05 5.64,0 10.19,1.35 13.64,4.05 3.45,2.7 5.3,6.46 5.54,11.27l-13.5 0c-0.1,-1.65 -0.7,-2.96 -1.82,-3.9 -1.12,-0.95 -2.55,-1.42 -4.3,-1.42 -1.51,0 -2.72,0.4 -3.65,1.2 -0.92,0.8 -1.39,1.96 -1.39,3.47 0,1.65 0.78,2.94 2.34,3.87 1.56,0.93 3.99,1.92 7.29,2.99 3.31,1.12 5.99,2.19 8.06,3.21 2.07,1.02 3.85,2.5 5.36,4.45 1.51,1.95 2.26,4.45 2.26,7.51 0,2.92 -0.74,5.57 -2.22,7.95 -1.48,2.38 -3.63,4.28 -6.46,5.69 -2.82,1.41 -6.15,2.11 -10,2.11z"/>
  <path id="_1" class="fil0" d="M86.52 13.28l0 40.71 -12.47 0 0 -5.54c-1.26,1.8 -2.98,3.25 -5.14,4.34 -2.16,1.09 -4.56,1.64 -7.19,1.64 -3.11,0 -5.86,-0.69 -8.24,-2.08 -2.38,-1.39 -4.23,-3.39 -5.54,-6.02 -1.31,-2.63 -1.97,-5.71 -1.97,-9.26l0 -23.78 12.4 0 0 22.1c0,2.72 0.7,4.84 2.11,6.35 1.41,1.51 3.31,2.26 5.69,2.26 2.43,0 4.35,-0.75 5.76,-2.26 1.41,-1.51 2.11,-3.62 2.11,-6.35l0 -22.1 12.47 0z"/>
  <path id="_2" class="fil0" d="M107.97 19.04c1.17,-1.9 2.85,-3.43 5.03,-4.59 2.19,-1.17 4.69,-1.75 7.51,-1.75 3.36,0 6.4,0.85 9.12,2.55 2.72,1.7 4.88,4.13 6.46,7.29 1.58,3.16 2.37,6.83 2.37,11.02 0,4.18 -0.79,7.87 -2.37,11.05 -1.58,3.19 -3.73,5.64 -6.46,7.37 -2.72,1.73 -5.76,2.59 -9.12,2.59 -2.87,0 -5.37,-0.57 -7.51,-1.71 -2.14,-1.14 -3.82,-2.66 -5.03,-4.56l0 5.69 -12.47 0 0 -53.98 12.47 0 0 19.04zm17.8 14.52c0,-3.11 -0.86,-5.56 -2.59,-7.33 -1.73,-1.77 -3.86,-2.66 -6.38,-2.66 -2.48,0 -4.58,0.9 -6.31,2.7 -1.73,1.8 -2.59,4.26 -2.59,7.37 0,3.11 0.86,5.57 2.59,7.37 1.73,1.8 3.83,2.7 6.31,2.7 2.48,0 4.6,-0.91 6.35,-2.73 1.75,-1.82 2.63,-4.29 2.63,-7.4z"/>
  <path id="_3" class="fil0" d="M161.59 54.57c-3.55,0 -6.71,-0.61 -9.48,-1.82 -2.77,-1.21 -4.96,-2.88 -6.57,-5 -1.6,-2.12 -2.5,-4.49 -2.7,-7.11l12.33 0c0.15,1.41 0.8,2.55 1.97,3.43 1.17,0.88 2.6,1.31 4.3,1.31 1.56,0 2.76,-0.31 3.61,-0.91 0.85,-0.61 1.28,-1.4 1.28,-2.37 0,-1.17 -0.61,-2.03 -1.82,-2.59 -1.22,-0.56 -3.19,-1.18 -5.91,-1.86 -2.92,-0.68 -5.35,-1.4 -7.3,-2.15 -1.95,-0.75 -3.62,-1.95 -5.03,-3.58 -1.41,-1.63 -2.11,-3.83 -2.11,-6.6 0,-2.34 0.64,-4.46 1.93,-6.38 1.29,-1.92 3.19,-3.44 5.69,-4.56 2.51,-1.12 5.48,-1.68 8.94,-1.68 5.11,0 9.13,1.26 12.07,3.79 2.94,2.53 4.63,5.89 5.07,10.07l-11.53 0c-0.19,-1.41 -0.82,-2.53 -1.86,-3.36 -1.04,-0.83 -2.42,-1.24 -4.12,-1.24 -1.46,0 -2.58,0.28 -3.36,0.84 -0.78,0.56 -1.17,1.33 -1.17,2.3 0,1.17 0.62,2.04 1.86,2.63 1.24,0.58 3.17,1.17 5.8,1.75 3.02,0.78 5.47,1.54 7.37,2.3 1.9,0.75 3.56,1.97 5,3.65 1.44,1.68 2.18,3.93 2.22,6.75 0,2.38 -0.67,4.51 -2.01,6.38 -1.34,1.87 -3.26,3.34 -5.76,4.41 -2.5,1.07 -5.41,1.61 -8.72,1.61z"/>
  <path id="_4" class="fil0" d="M208.42 43.41l0 10.58 -6.35 0c-4.52,0 -8.05,-1.11 -10.58,-3.32 -2.53,-2.21 -3.79,-5.82 -3.79,-10.83l0 -16.2 -4.96 0 0 -10.36 4.96 0 0 -9.92 12.47 0 0 9.92 8.17 0 0 10.36 -8.17 0 0 16.34c0,1.22 0.29,2.09 0.88,2.63 0.58,0.53 1.56,0.8 2.92,0.8l4.45 0z"/>
  <path id="_5" class="fil0" d="M212.87 33.56c0,-4.18 0.79,-7.85 2.37,-11.02 1.58,-3.16 3.73,-5.59 6.46,-7.29 2.72,-1.7 5.76,-2.55 9.12,-2.55 2.87,0 5.39,0.58 7.55,1.75 2.16,1.17 3.83,2.7 5,4.59l0 -5.76 12.47 0 0 40.71 -12.47 0 0 -5.76c-1.22,1.9 -2.91,3.43 -5.07,4.6 -2.16,1.17 -4.68,1.75 -7.55,1.75 -3.31,0 -6.32,-0.86 -9.05,-2.59 -2.72,-1.73 -4.88,-4.18 -6.46,-7.37 -1.58,-3.18 -2.37,-6.87 -2.37,-11.05zm30.5 0.07c0,-3.11 -0.86,-5.57 -2.59,-7.37 -1.73,-1.8 -3.83,-2.7 -6.31,-2.7 -2.48,0 -4.58,0.89 -6.31,2.66 -1.73,1.77 -2.59,4.22 -2.59,7.33 0,3.11 0.86,5.58 2.59,7.4 1.73,1.82 3.83,2.73 6.31,2.73 2.48,0 4.58,-0.9 6.31,-2.7 1.73,-1.8 2.59,-4.26 2.59,-7.37z"/>
  <path id="_6" class="fil0" d="M289.69 12.84c4.77,0 8.57,1.54 11.42,4.63 2.85,3.09 4.27,7.33 4.27,12.73l0 23.78 -12.4 0 0 -22.1c0,-2.72 -0.7,-4.84 -2.12,-6.35 -1.41,-1.51 -3.31,-2.26 -5.69,-2.26 -2.38,0 -4.28,0.75 -5.69,2.26 -1.41,1.51 -2.11,3.62 -2.11,6.35l0 22.1 -12.47 0 0 -40.71 12.47 0 0 5.4c1.26,-1.8 2.97,-3.22 5.11,-4.27 2.14,-1.04 4.55,-1.57 7.22,-1.57z"/>
  <path id="_7" class="fil0" d="M311.58 33.63c0,-4.23 0.86,-7.93 2.59,-11.09 1.73,-3.16 4.13,-5.59 7.22,-7.29 3.09,-1.7 6.63,-2.55 10.62,-2.55 5.11,0 9.37,1.34 12.8,4.01 3.43,2.67 5.68,6.44 6.75,11.31l-13.28 0c-1.12,-3.11 -3.28,-4.67 -6.49,-4.67 -2.29,0 -4.11,0.89 -5.47,2.66 -1.36,1.77 -2.04,4.32 -2.04,7.62 0,3.31 0.68,5.85 2.04,7.62 1.36,1.77 3.18,2.66 5.47,2.66 3.21,0 5.37,-1.56 6.49,-4.67l13.28 0c-1.07,4.76 -3.33,8.51 -6.78,11.23 -3.45,2.72 -7.71,4.09 -12.77,4.09 -3.99,0 -7.53,-0.85 -10.62,-2.55 -3.09,-1.7 -5.5,-4.13 -7.22,-7.29 -1.73,-3.16 -2.59,-6.86 -2.59,-11.09z"/>
  <path id="_8" class="fil0" d="M396.57 32.97c0,1.17 -0.07,2.38 -0.22,3.65l-28.23 0c0.19,2.53 1.01,4.46 2.44,5.8 1.44,1.34 3.2,2.01 5.29,2.01 3.11,0 5.28,-1.31 6.49,-3.94l13.28 0c-0.68,2.68 -1.91,5.08 -3.68,7.22 -1.77,2.14 -4,3.82 -6.68,5.03 -2.67,1.22 -5.67,1.82 -8.97,1.82 -3.99,0 -7.54,-0.85 -10.65,-2.55 -3.11,-1.7 -5.55,-4.13 -7.3,-7.29 -1.75,-3.16 -2.63,-6.86 -2.63,-11.09 0,-4.23 0.86,-7.93 2.59,-11.09 1.73,-3.16 4.15,-5.59 7.26,-7.29 3.11,-1.7 6.69,-2.55 10.72,-2.55 3.94,0 7.44,0.83 10.51,2.48 3.06,1.65 5.46,4.01 7.19,7.08 1.73,3.06 2.59,6.64 2.59,10.72zm-12.77 -3.28c0,-2.14 -0.73,-3.84 -2.19,-5.11 -1.46,-1.26 -3.28,-1.9 -5.47,-1.9 -2.09,0 -3.86,0.61 -5.29,1.82 -1.43,1.22 -2.32,2.94 -2.66,5.18l15.61 0z"/>
 </g>
</svg>
